<svg preserveAspectRatio="none" width="100%" height="100%" overflow="visible" style="display: block;" viewBox="0 0 95 93.0287" fill="none" xmlns="http://www.w3.org/2000/svg">
<g id="Group">
<path id="Vector" d="M0 46.5C0 39.037 0.575758 32.4065 1.72727 26.637C2.87879 20.8676 4.46212 15.988 6.44848 12.0556C8.43485 8.12315 10.7667 5.10926 13.4152 3.0713C16.0636 1.03333 18.8848 0.0287037 21.85 0.0287037C24.8152 0.0287037 27.6364 1.03333 30.2848 3.0713C32.9333 5.10926 35.2651 8.09444 37.2515 12.0556C39.2379 16.0167 40.8212 20.8676 41.9727 26.637C43.1242 32.4065 43.7 39.037 43.7 46.5C43.7 53.963 43.1242 60.5935 41.9727 66.363C40.8212 72.1324 39.2379 77.012 37.2515 80.9444C35.2651 84.8768 32.9333 87.8907 30.2848 89.9287C27.6364 91.9667 24.8152 92.9713 21.85 92.9713C18.8848 92.9713 16.0636 91.9667 13.4152 89.9287C10.7667 87.8907 8.43485 84.9055 6.44848 80.9444C4.46212 76.9833 2.87879 72.1324 1.72727 66.363C0.575758 60.5935 0 53.963 0 46.5ZM10.4212 46.5C10.4212 60.2491 11.3424 70.812 13.1561 78.1602C14.9697 85.5083 17.8773 89.1824 21.85 89.1824C25.8227 89.1824 28.7303 85.5083 30.5439 78.1602C32.3576 70.812 33.2788 60.2491 33.2788 46.5C33.2788 32.7509 32.3576 22.188 30.5439 14.8398C28.7303 7.49167 25.8227 3.81759 21.85 3.81759C17.8773 3.81759 14.9697 7.49167 13.1561 14.8398C11.3424 22.188 10.4212 32.7509 10.4212 46.5Z" fill="var(--fill-0, #1D1D1B)"/>
<path id="Vector_2" d="M71.1348 89.1824C75.8273 89.1824 79.253 85.7093 81.3833 78.7343C83.5136 71.7593 84.6939 61.1102 84.953 46.7583C83.3697 48.8824 81.4409 50.7481 79.1955 52.3556C76.95 53.963 74.2727 54.7667 71.1348 54.7667C68.2848 54.7667 65.6651 54.1639 63.247 52.9296C60.8288 51.6954 58.7273 49.9444 56.9424 47.7056C55.1576 45.4667 53.7758 42.7111 52.7682 39.4963C51.7606 36.2815 51.2712 32.6648 51.2712 28.675C51.2712 24.6852 51.7894 20.9537 52.8258 17.4519C53.8621 13.9787 55.3015 10.9361 57.2015 8.35278C59.1015 5.76944 61.3758 3.73148 64.053 2.23889C66.7303 0.746296 69.753 0 73.15 0C76.547 0 79.3682 0.861111 82.0455 2.55463C84.7227 4.24815 87.0258 6.83148 88.9545 10.2759C90.8833 13.7204 92.3803 18.0833 93.4167 23.3935C94.4818 28.7037 95 34.9324 95 42.0509C95 49.1694 94.5394 56.1157 93.647 62.3731C92.7545 68.6306 91.3152 73.9982 89.3288 78.562C87.3424 83.0972 84.7803 86.6565 81.6136 89.2111C78.447 91.7657 74.647 93.0287 70.1273 93.0287C67.5364 93.0287 65.2621 92.4833 63.2758 91.3639C61.2894 90.2731 59.6197 88.8093 58.2667 87.0296C56.9136 85.25 55.9061 83.2694 55.2439 81.1167C54.5818 78.9639 54.2364 76.8398 54.2364 74.8019C54.2364 71.4148 54.8121 68.9176 55.9636 67.3389C57.1152 65.7602 58.4106 64.9852 59.7924 64.9852C61.6348 64.9852 63.0167 65.6741 63.8803 67.0806C64.7439 68.487 65.1758 70.1519 65.1758 72.1037C65.1758 73.4528 65.0318 74.6009 64.7727 75.5481C64.5136 76.4954 64.2258 77.3278 63.9379 78.1028C63.65 78.8778 63.3621 79.6241 63.103 80.3417C62.8439 81.0593 62.7 81.8917 62.7 82.8389C62.7 84.1019 63.3621 85.4796 64.6864 86.9722C66.0106 88.4648 68.1697 89.2111 71.1348 89.2111V89.1824ZM74.1288 50.3176C76.5182 50.3176 78.6197 49.4852 80.4333 47.763C82.247 46.0694 83.8015 44.1176 85.0682 41.9074V37.5731C85.0682 31.0287 84.7515 25.6037 84.1182 21.2694C83.4848 16.9352 82.6212 13.4907 81.4697 10.8787C80.347 8.29537 79.0227 6.45833 77.497 5.3963C75.9712 4.33426 74.3591 3.81759 72.6318 3.81759C71.1636 3.81759 69.753 4.24815 68.3712 5.08056C66.9894 5.94167 65.7515 7.23333 64.6864 9.04167C63.6212 10.8213 62.7864 13.1176 62.153 15.9306C61.5197 18.7435 61.203 22.1306 61.203 26.1204C61.203 34.1 62.3545 40.1278 64.6864 44.2037C67.0182 48.2796 70.1561 50.3176 74.1288 50.3176Z" fill="var(--fill-0, #1D1D1B)"/>
</g>
</svg>
