<svg preserveAspectRatio="none" width="100%" height="100%" overflow="visible" style="display: block;" viewBox="0 0 37 46" fill="none" xmlns="http://www.w3.org/2000/svg">
<path id="Vector" d="M28.4614 22.9343C23.1984 34.6314 16.4032 44.5543 10.4073 44.5543C4.4115 44.5543 7.60928 31.4771 11.4066 23.0657C14.4712 16.3629 23.5315 1.44571 29.5273 1.44571C35.5232 1.44571 33.6578 11.5 28.4614 22.9343ZM30.1936 0C22.6655 0 15.737 13.34 9.60789 19.78C5.27757 24.38 3.14572 23.7886 0.547526 29.5714C-1.71756 34.5657 3.34558 46 10.2075 46C17.7356 46 28.8611 36.8 35.1235 22.9343C38.7876 14.72 37.0554 0 30.1936 0Z" fill="var(--fill-0, black)"/>
</svg>
