<svg preserveAspectRatio="none" width="100%" height="100%" overflow="visible" style="display: block;" viewBox="0 0 31.7311 33.03" fill="none" xmlns="http://www.w3.org/2000/svg">
<g id="Group 210">
<path id="Union" d="M10.2399 4.18339H21.4899V2.88456H23.2203V4.18632L23.3736 4.1912C26.4217 4.34595 28.8463 6.86639 28.8463 9.95292V24.3758L28.8385 24.6726C28.6888 27.6223 26.3233 29.9878 23.3736 30.1375L23.0768 30.1453H8.65392L8.35705 30.1375C5.40711 29.9881 3.04198 27.6225 2.8922 24.6726L2.88439 24.3758V9.95292C2.88439 6.86613 5.30862 4.34557 8.35705 4.1912L8.50939 4.18632V2.88456H10.2399V4.18339ZM4.61486 24.3758C4.61511 26.6059 6.4237 28.4139 8.65392 28.4139H23.0768C25.3068 28.4136 27.1146 26.6058 27.1149 24.3758V14.784H4.61486V24.3758ZM10.2399 24.9519H8.50939V23.6541H10.2399V24.9519ZM16.7301 24.9519H14.9996V23.6541H16.7301V24.9519ZM23.2203 24.9519H21.4899V23.6541H23.2203V24.9519ZM10.2399 19.7596H8.50939V18.4617H10.2399V19.7596ZM16.7301 19.7596H14.9996V18.4617H16.7301V19.7596ZM23.2203 19.7596H21.4899V18.4617H23.2203V19.7596ZM10.2399 8.07694H8.50939V5.91679C6.34576 5.99273 4.61486 7.7708 4.61486 9.95292V13.0535H27.1149V9.95292C27.1149 7.77075 25.384 5.99265 23.2203 5.91679V8.07694H21.4899V5.91386H10.2399V8.07694Z" fill="var(--fill-0, black)"/>
</g>
</svg>
