<svg preserveAspectRatio="none" width="100%" height="100%" overflow="visible" style="display: block;" viewBox="0 0 358.387 36" fill="none" xmlns="http://www.w3.org/2000/svg">
<g id="Group">
<path id="Vector" d="M22.8304 17.9479C18.6076 27.1029 13.1594 34.8646 8.35525 34.8646C3.55109 34.8646 6.10989 24.6345 9.1588 18.0522C11.6093 12.8027 18.8754 1.13001 23.6853 1.13001C28.4951 1.13001 26.9963 8.99592 22.8304 17.9424M24.2153 3.82067e-05C18.1801 3.82067e-05 12.6237 10.4386 7.70558 15.4795C4.23496 19.0779 2.52529 18.6171 0.4395 23.1425C-1.37844 27.048 2.68486 35.9946 8.18429 35.9946C14.2194 35.9946 23.1439 28.7978 28.1646 17.9479C31.1109 11.5192 29.7204 3.82067e-05 24.2153 3.82067e-05Z" fill="var(--fill-0, #1D1D1B)"/>
<path id="Vector_2" d="M63.8568 4.31693C64.8199 2.21057 63.5376 0 60.3292 0H54.9323C51.1369 0 48.5211 1.12997 46.1161 2.87978C46.9197 1.18482 45.6887 0 44.4065 0H37.8357L37.3 1.12997C40.9871 1.12997 44.6743 3.34055 42.6968 7.60811C40.9871 11.3107 36.7643 11.6727 35.1116 15.3204C35.1116 15.3204 27.2585 32.2371 26.8311 33.1641C26.0846 34.8591 27.2585 35.9945 28.5408 35.9945H35.5903L36.126 34.8645C33.6698 34.8645 31.8518 33.8388 33.0828 31.162L42.9647 9.71995C43.9791 7.30093 46.2244 4.78318 48.5211 3.03337C50.2307 1.69496 52.4191 1.12997 54.9323 1.12997C57.4455 1.12997 59.4173 2.21057 58.1921 4.83255C57.7647 5.70471 46.1161 30.9535 45.1587 33.1147C44.3552 34.8645 46.0136 35.9945 47.0793 35.9945H54.3453L54.881 34.8645C51.3534 34.8645 50.396 33.4274 51.4617 31.3704C52.5844 29.1598 62.8937 6.43425 63.8568 4.32241" fill="var(--fill-0, #1D1D1B)"/>
<path id="Vector_3" d="M81.1129 0C78.7649 0 77.5853 1.43715 75.2373 3.70258C72.8894 5.968 70.2166 6.58236 69.1452 9.00137C66.632 14.8652 70.4788 17.3829 70.4788 17.3829C70.4788 17.3829 65.1902 17.3335 61.56 25.3037C58.8872 31.1126 63.4805 36 67.92 36C73.1002 36 76.2517 31.886 78.0184 28.0299C78.7136 26.4885 78.5541 24.9471 77.6992 24.6345C76.8444 24.3218 75.6704 25.0952 74.8156 26.7408C73.6929 29.0008 74.5478 30.7012 75.8813 30.1856C74.3312 32.2919 71.231 34.8645 68.4556 34.8645C63.2754 34.8645 64.7172 30.0814 66.9056 25.2982C68.6665 21.5462 70.2166 19.95 71.231 19.023C71.9776 18.3044 72.992 17.9424 74.0064 17.9424H75.0208L75.4995 16.8124H74.9638C73.7898 16.8124 72.8267 15.8854 72.8267 14.7061C72.878 12.7533 73.7328 10.6415 74.4851 8.99589C75.5508 6.73594 77.9044 1.12997 80.5772 1.12997C82.8738 1.12997 82.8738 3.18696 82.8738 3.18696C81.9107 3.18696 80.845 3.90553 80.1498 5.50175C79.4545 7.04312 79.6711 8.48575 80.5259 8.8423C81.3807 9.19884 82.8225 8.17309 83.6261 6.22033C84.4296 4.21271 84.1048 0 81.1129 0Z" fill="var(--fill-0, #1D1D1B)"/>
<path id="Vector_4" d="M109.209 5.19458C108.781 6.12159 107.926 8.02499 106.861 10.2849C104.94 14.5031 103.76 16.8673 101.732 16.8673H93.5025C96.1753 11.0584 97.9875 7.09797 99.5376 3.65321C99.8567 2.93463 99.965 1.70044 99.1615 1.13546H107.869C109.63 1.13546 110.383 2.67682 109.203 5.20006M98.2041 0H91.1545L90.6189 1.12997C93.4512 1.12997 94.6765 2.62197 93.6621 4.83255C93.5025 5.24394 92.0607 8.32668 90.0319 12.7533C86.4017 20.6192 81.6431 30.9535 80.6287 33.1147C79.8252 34.8097 81.0561 35.9945 82.3384 35.9945H89.3879L89.9236 34.8645C87.4674 34.8645 85.6494 33.8388 86.8804 31.162L92.9725 17.9973H103.23C107.664 17.9973 110.337 14.5031 112.634 9.5115C115.626 2.984 112.953 0 108.359 0H98.2098" fill="var(--fill-0, #1D1D1B)"/>
<path id="Vector_5" d="M123.741 3.75194C123.741 3.85616 123.313 5.4469 123.154 6.06674C122.943 6.84017 121.017 16.1981 119.039 24.064H112.149C116.047 17.2238 120.002 10.3343 123.741 3.75194ZM129.406 2.87978C129.833 1.0806 128.978 0 127.696 0H121.233L120.698 1.12997C121.98 1.12997 123.741 1.69496 122.567 3.75194C117.655 12.0293 112.845 20.4108 108.035 28.8417C106.376 31.6173 104.507 34.8591 101.413 34.8591C99.3839 34.8591 99.2756 33.2135 100.182 30.3831C100.182 30.3337 99.3269 29.7139 99.3269 29.7139C97.8851 32.6979 98.3638 35.989 101.515 35.989C104.935 35.989 107.02 32.9557 108.462 30.4873C109.368 28.8911 110.491 26.8889 111.505 25.1885H118.771C117.917 28.5839 117.011 32.8514 116.954 33.1093C116.577 34.9084 117.592 35.989 118.874 35.989H125.337L125.924 34.8591C123.467 34.8591 122.185 33.9869 122.88 31.1565C124.322 25.0897 125.764 18.5568 127.263 12.0293C128.277 7.55325 129.132 4.00975 129.4 2.8743M102.535 30.9535C103.282 29.4122 103.122 27.8708 102.268 27.5088C101.413 27.1467 100.13 28.0738 99.3839 29.6151C98.6886 31.1565 98.7969 32.6979 99.6517 33.0599C100.558 33.4219 101.84 32.4949 102.535 30.9535Z" fill="var(--fill-0, #1D1D1B)"/>
<path id="Vector_6" d="M169.879 3.75194C169.879 3.85616 169.452 5.4469 169.292 6.06674C169.081 6.84017 167.155 16.1981 165.178 24.064H158.288C162.186 17.2238 166.141 10.3343 169.879 3.75194ZM175.538 2.87978C175.966 1.0806 175.111 0 173.828 0H167.366L166.83 1.12997C168.112 1.12997 169.873 1.69496 168.699 3.75194C163.787 12.0293 158.977 20.4108 154.167 28.8417C152.509 31.6173 150.64 34.8591 147.545 34.8591C145.516 34.8591 145.408 33.2135 146.314 30.3831C146.314 30.3337 145.459 29.7139 145.459 29.7139C144.018 32.6979 144.496 35.989 147.648 35.989C151.067 35.989 153.153 32.9557 154.595 30.4873C155.501 28.8911 156.624 26.8889 157.638 25.1885H164.904C164.049 28.5839 163.143 32.8514 163.086 33.1093C162.71 34.9084 163.724 35.989 165.007 35.989H171.469L172.056 34.8591C169.6 34.8591 168.318 33.9869 169.013 31.1565C170.455 25.0897 171.897 18.5568 173.395 12.0293C174.41 7.55325 175.265 4.00975 175.532 2.8743M148.668 30.9535C149.414 29.4122 149.255 27.8708 148.4 27.5088C147.545 27.1467 146.263 28.0738 145.516 29.6151C144.821 31.1565 144.929 32.6979 145.784 33.0599C146.69 33.4219 147.973 32.4949 148.668 30.9535Z" fill="var(--fill-0, #1D1D1B)"/>
<path id="Vector_7" d="M212.296 4.37178C213.259 2.26543 211.76 0 208.557 0H203.161C199.365 0 196.538 1.12997 194.401 2.87978C194.88 1.9034 194.88 0 192.692 0H185.642L185.107 1.12997C187.511 1.12997 189.381 2.15572 188.15 4.83255C185.694 10.1313 184.998 11.6727 183.34 15.3204C183.34 15.3204 176.023 30.9535 175.059 33.1093C174.313 34.8042 175.487 35.989 176.769 35.989H183.819L184.354 34.8591C181.898 34.8591 180.08 33.8333 181.311 31.1565L191.25 9.66509C192.264 7.24608 194.453 4.77769 196.755 3.03337C198.465 1.69496 200.653 1.12997 203.166 1.12997C205.679 1.12997 207.651 2.21057 206.426 4.83255C205.52 6.73594 194.458 31.0029 193.444 33.1147C192.64 34.8097 193.871 35.9945 195.154 35.9945H202.42L202.955 34.8645C200.499 34.8152 198.681 33.8388 199.912 31.162C199.912 31.162 211.344 6.47814 212.307 4.37178" fill="var(--fill-0, #1D1D1B)"/>
<path id="Vector_8" d="M236.493 5.19458C236.066 6.12159 235.211 8.02499 234.145 10.2849C232.225 14.5031 231.045 16.8673 229.016 16.8673H220.787C223.46 11.0584 225.272 7.09797 226.822 3.65321C227.141 2.93463 227.249 1.70044 226.446 1.13546H235.154C236.915 1.13546 237.667 2.67682 236.487 5.20006M225.489 0H218.439L217.903 1.12997C220.736 1.12997 221.961 2.62197 220.947 4.83255C220.787 5.24394 219.345 8.32668 217.316 12.7533C213.686 20.6192 208.928 30.9535 207.913 33.1147C207.11 34.8097 208.341 35.9945 209.623 35.9945H216.672L217.208 34.8645C214.752 34.8645 212.934 33.8388 214.165 31.162L220.257 17.9973H230.515C234.949 17.9973 237.621 14.5031 239.918 9.5115C242.91 2.984 240.237 0 235.644 0H225.494" fill="var(--fill-0, #1D1D1B)"/>
<path id="Vector_9" d="M267.319 5.13972L266.464 4.31693L238.152 31.6721L239.166 32.6485L267.319 5.13972ZM244.934 0L244.398 1.12997C246.854 1.12997 248.723 2.15572 247.441 4.83255C246.695 6.42877 235.53 30.7451 234.408 33.1147C233.604 34.8097 234.835 35.9945 236.117 35.9945H243.167L243.703 34.8645C241.246 34.8645 239.428 33.8388 240.659 31.162C241.623 29.105 252.468 5.55661 253.693 2.87978C254.496 1.18482 253.265 0 251.983 0H244.934ZM263.421 0L262.885 1.12997C265.341 1.12997 267.211 2.15572 265.928 4.83255C265.182 6.42877 254.018 30.7451 252.895 33.1147C252.091 34.8097 253.322 35.9945 254.605 35.9945H261.654L262.19 34.8645C259.734 34.8645 257.916 33.8388 259.147 31.162C260.11 29.105 270.955 5.55661 272.18 2.87978C272.984 1.18482 271.753 0 270.47 0H263.421Z" fill="var(--fill-0, #1D1D1B)"/>
<path id="Vector_10" d="M289.807 18.458C285.532 27.613 279.816 34.8591 275.172 34.8591C269.724 34.8591 273.143 24.629 276.186 18.0466C278.642 12.8027 285.213 1.12997 290.929 1.12997C295.899 1.12997 293.972 9.51151 289.807 18.458ZM291.465 0C283.931 0 274.853 9.56636 270.579 18.6665C267.854 24.4754 267.746 35.9945 274.636 35.9945C281.526 35.9945 290.342 28.8472 295.414 17.9479C298.355 11.574 296.964 0 291.459 0" fill="var(--fill-0, #1D1D1B)"/>
<path id="Vector_11" d="M322.449 5.19458C322.022 6.12159 321.167 8.02499 320.101 10.2849C318.181 14.5031 317.001 16.8673 314.972 16.8673H306.743C309.416 11.0584 311.228 7.09797 312.778 3.65321C313.097 2.93463 313.206 1.70044 312.402 1.13546H321.11C322.871 1.13546 323.623 2.67682 322.444 5.20006M311.445 0H304.395L303.859 1.12997C306.692 1.12997 307.917 2.62197 306.903 4.83255C306.743 5.24394 305.301 8.32668 303.272 12.7533C299.642 20.6192 294.884 30.9535 293.869 33.1147C293.066 34.8097 294.297 35.9945 295.579 35.9945H302.629L303.164 34.8645C300.708 34.8645 298.89 33.8388 300.121 31.162L306.213 17.9973H316.471C320.905 17.9973 323.578 14.5031 325.874 9.5115C328.866 2.984 326.193 0 321.6 0H311.45" fill="var(--fill-0, #1D1D1B)"/>
<path id="Vector_12" d="M353.275 5.13972L352.42 4.31693L324.108 31.6721L325.122 32.6485L353.275 5.13972ZM330.89 0L330.354 1.12997C332.81 1.12997 334.68 2.15572 333.397 4.83255C332.651 6.42877 321.487 30.7451 320.364 33.1147C319.56 34.8097 320.791 35.9945 322.074 35.9945H329.123L329.659 34.8645C327.203 34.8645 325.385 33.8388 326.616 31.162C327.579 29.105 338.424 5.55661 339.649 2.87978C340.452 1.18482 339.222 0 337.939 0H330.89ZM349.371 0L348.836 1.12997C351.292 1.12997 353.161 2.15572 351.879 4.83255C351.132 6.42877 339.968 30.7451 338.845 33.1147C338.042 34.8097 339.273 35.9945 340.555 35.9945H347.605L348.14 34.8645C345.684 34.8645 343.866 33.8388 345.097 31.162C346.06 29.105 356.905 5.55661 358.13 2.87978C358.934 1.18482 357.703 0 356.421 0H349.371Z" fill="var(--fill-0, #1D1D1B)"/>
</g>
</svg>
