<svg preserveAspectRatio="none" width="100%" height="100%" overflow="visible" style="display: block;" viewBox="0 0 185.538 62.9842" fill="none" xmlns="http://www.w3.org/2000/svg">
<g id="Group">
<path id="Vector" d="M25.2998 0V1.73137H25.0347C23.662 1.73137 22.8354 2.04333 22.5234 2.66724C22.2114 3.29116 22.0711 4.4766 22.0711 6.23917V42.2392C22.0711 43.9861 22.227 45.1872 22.5234 45.8111C22.8354 46.435 23.662 46.747 25.0347 46.747H25.2998V48.4783H13.9913V46.747H14.2565C15.6135 46.747 16.4558 46.435 16.7678 45.8111C17.0797 45.1872 17.2201 44.0017 17.2201 42.2392V6.22357C17.2201 5.44367 17.2045 4.78856 17.1733 4.25823C17.1421 3.7279 17.0329 3.30676 16.8458 2.9792C16.6586 2.65165 16.3778 2.41768 15.9879 2.29289C15.5979 2.15251 15.0208 2.09012 14.2721 2.09012H11.0433C10.2946 2.09012 9.7175 2.15251 9.32756 2.29289C8.93761 2.43328 8.64125 2.66724 8.46967 2.9792C8.2825 3.30676 8.18891 3.7279 8.14211 4.25823C8.11092 4.78856 8.07972 5.44367 8.07972 6.22357V42.2236C8.07972 43.9705 8.2357 45.1716 8.53206 45.7955C8.84402 46.4194 9.67071 46.7314 11.0277 46.7314H11.2929V48.4627H0V46.7314H0.265165C1.62218 46.7314 2.46447 46.4194 2.77643 45.7955C3.07279 45.1716 3.22877 43.9861 3.22877 42.2236V6.22357C3.22877 4.4766 3.07279 3.27556 2.77643 2.65165C2.46447 2.02773 1.63778 1.71577 0.265165 1.71577H0V0H25.2998Z" fill="var(--fill-0, #222323)"/>
<path id="Vector_2" d="M35.3138 21.4626C35.7038 20.3551 36.2341 19.3568 36.8736 18.4834C37.4039 17.7503 38.1058 17.0796 38.9481 16.4712C39.7904 15.8785 40.8199 15.5666 42.0365 15.5666C43.5027 15.5666 44.8909 15.9253 46.1856 16.6428C47.4802 17.3603 48.5876 18.421 49.5235 19.8248C50.4594 21.2286 51.1925 22.9756 51.7384 25.0501C52.2687 27.1246 52.5495 29.5111 52.5495 32.1783C52.5495 35.1263 52.2376 37.7 51.6136 39.8681C50.9897 42.0362 50.1474 43.83 49.118 45.265C48.0729 46.7 46.8719 47.7607 45.5149 48.447C44.1578 49.1333 42.7384 49.492 41.2566 49.492C40.2584 49.492 39.3849 49.3361 38.6518 49.0397C37.9187 48.7433 37.3103 48.4158 36.8268 48.0726C36.3433 47.7295 35.9845 47.3863 35.7506 47.0276C35.5166 46.6844 35.3762 46.4816 35.345 46.4348V56.7451C35.345 58.492 35.4854 59.6931 35.7818 60.317C36.0625 60.9409 36.8268 61.2529 38.0434 61.2529H38.3086V62.9842H27.8112V61.2529H28.0764C29.293 61.2529 30.0573 60.9409 30.3381 60.317C30.6188 59.6931 30.7748 58.5076 30.7748 56.7451V22.8508C30.7748 21.1038 30.6344 19.9028 30.3381 19.2789C30.0573 18.6549 29.293 18.343 28.0764 18.343H27.8112V16.6116H28.0764C29.8389 16.6116 31.2116 16.5024 32.2254 16.2997C33.2237 16.0969 34.0036 15.7381 34.5339 15.2234H35.345V21.4626H35.3138ZM35.3138 41.5371C35.3138 42.0518 35.4074 42.6445 35.579 43.3309C35.7506 44.0172 36.0625 44.6723 36.4993 45.265C36.936 45.8577 37.4819 46.3724 38.1682 46.7936C38.8545 47.2147 39.6968 47.4175 40.6951 47.4175C42.7384 47.4175 44.3294 46.1073 45.4681 43.5024C46.5911 40.8976 47.1682 37.2321 47.1682 32.5215C47.1682 27.8109 46.6067 24.2078 45.4681 21.7277C44.3294 19.2321 42.754 17.9842 40.6951 17.9842C39.1821 17.9842 37.9187 18.9357 36.8736 20.8231C35.8285 22.7104 35.3138 25.2373 35.3138 28.3724V41.5215V41.5371Z" fill="var(--fill-0, #222323)"/>
<path id="Vector_3" d="M74.9477 42.2241C74.9477 43.9711 75.088 45.1721 75.3844 45.796C75.6652 46.42 76.4295 46.7319 77.6461 46.7319H77.9113V48.4633H70.3775V43.8931L68.9737 45.2033C67.8194 46.3108 66.6184 47.309 65.3705 48.1825C64.1071 49.056 62.7345 49.4927 61.2215 49.4927C59.5993 49.4927 58.2579 48.9 57.1816 47.7302C56.1054 46.5603 55.5594 44.9693 55.5594 42.9884C55.5594 40.0404 56.5421 37.5135 58.523 35.4078C60.504 33.3021 63.1868 31.1964 66.6028 29.0751L70.3775 26.7198V23.881C70.3775 22.7735 70.3619 21.822 70.3151 21.0109C70.2839 20.1999 70.1591 19.5603 69.9719 19.0768C69.7691 18.5933 69.4572 18.2345 69.036 18.0005C68.5993 17.7666 67.9754 17.6574 67.1487 17.6574C65.2457 17.6574 63.7171 18.1253 62.5785 19.0456C61.4399 19.9659 60.8627 21.1201 60.8627 22.5083C60.8627 23.0231 60.9095 23.4442 61.0031 23.7874C61.0967 24.1305 61.1435 24.6453 61.1435 25.3472C61.1435 26.5482 60.8627 27.4061 60.2856 27.9364C59.7085 28.4667 59.1158 28.7319 58.5074 28.7319C57.6496 28.7319 56.9944 28.3732 56.5421 27.6557C56.0898 26.9382 55.8714 26.1427 55.8714 25.2692C55.8714 24.3021 56.2457 23.257 56.9788 22.1184C57.7119 20.9953 58.679 19.9347 59.8801 18.9676C61.0811 18.0005 62.4381 17.1895 63.9511 16.5499C65.4641 15.9104 66.9771 15.5829 68.5213 15.5829C70.0655 15.5829 71.1574 15.7856 72.0152 16.2068C72.8731 16.6279 73.5282 17.205 73.9494 17.9382C74.3861 18.6713 74.6513 19.5603 74.7761 20.5742C74.9009 21.5881 74.9633 22.6955 74.9633 23.8966V42.2397L74.9477 42.2241ZM70.3775 41.8186V28.5915L67.679 30.3229C66.712 30.978 65.7605 31.6487 64.8558 32.3662C63.9355 33.0837 63.1244 33.848 62.4381 34.6903C61.7362 35.517 61.1747 36.4373 60.7691 37.42C60.3636 38.4182 60.1452 39.5101 60.1452 40.7111C60.1452 42.3333 60.4884 43.5811 61.1903 44.4858C61.8922 45.3905 62.7657 45.8428 63.7951 45.8428C64.731 45.8428 65.5889 45.5933 66.3844 45.0785C67.1799 44.5638 67.9754 43.9555 68.8021 43.2068L70.3619 41.8186H70.3775Z" fill="var(--fill-0, #222323)"/>
<path id="Vector_4" d="M93.0405 16.6117C94.9434 16.6117 96.5188 16.8456 97.7822 17.298C99.0301 17.7659 100.06 18.3742 100.855 19.1385C101.651 19.9028 102.196 20.7607 102.524 21.6966C102.852 22.6325 103.008 23.5995 103.008 24.5666C103.008 26.0484 102.68 27.2338 102.04 28.1385C101.401 29.0432 100.699 29.7451 99.9347 30.2442C98.9989 30.8526 97.9538 31.2581 96.8152 31.4921V31.8352C98.1722 32.0224 99.4044 32.4123 100.481 33.0051C101.385 33.5198 102.196 34.2841 102.961 35.3292C103.725 36.3742 104.084 37.8092 104.084 39.6498C104.084 40.7572 103.881 41.8491 103.46 42.9097C103.054 43.9704 102.384 44.9219 101.495 45.7486C100.59 46.5753 99.4512 47.2304 98.0474 47.7139C96.6436 48.1974 94.9746 48.447 93.0405 48.447H80.9209V46.7156H81.186C82.4027 46.7156 83.167 46.4037 83.4477 45.7798C83.7285 45.1558 83.8845 43.9704 83.8845 42.2078V22.8196C83.8845 21.0727 83.7441 19.8716 83.4477 19.2477C83.167 18.6238 82.4027 18.3118 81.186 18.3118H80.9209V16.5805H93.0405V16.6117ZM91.1531 18.6862C89.9365 18.6862 89.1722 18.9357 88.8914 19.4505C88.6107 19.9652 88.4547 21.0883 88.4547 22.8352V30.7902H93.0249C94.6471 30.7902 95.8481 30.213 96.6592 29.0588C97.4703 27.9045 97.8758 26.4695 97.8758 24.7694C97.8758 23.0692 97.4703 21.6186 96.6592 20.4487C95.8481 19.2789 94.6471 18.6862 93.0249 18.6862H91.1375H91.1531ZM88.4547 32.8803V42.2234C88.4547 43.9704 88.5951 45.1091 88.8914 45.6082C89.1722 46.1229 89.9365 46.3725 91.1531 46.3725H93.0405C94.7562 46.3725 96.1445 45.811 97.1583 44.6723C98.1878 43.5493 98.6869 41.8647 98.6869 39.6498C98.6869 37.4349 98.1722 35.7503 97.1583 34.5961C96.1289 33.4418 94.7562 32.8647 93.0405 32.8647H88.4703L88.4547 32.8803Z" fill="var(--fill-0, #222323)"/>
<path id="Vector_5" d="M125.126 26.0956L114.894 42.2239C114.894 43.9709 115.034 45.1719 115.33 45.7958C115.611 46.4197 116.375 46.7317 117.592 46.7317H117.857V48.4631H107.36V46.7317H107.625C108.842 46.7317 109.606 46.4197 109.887 45.7958C110.167 45.1719 110.323 43.9865 110.323 42.2239V22.8357C110.323 21.0887 110.183 19.8877 109.887 19.2638C109.606 18.6398 108.842 18.3279 107.625 18.3279H107.36V16.5965H117.857V18.3279H117.592C116.375 18.3279 115.611 18.6398 115.33 19.2638C115.049 19.8877 114.894 21.0731 114.894 22.8357V38.9639L125.126 22.8357C125.126 21.0887 124.985 19.8877 124.689 19.2638C124.408 18.6398 123.644 18.3279 122.427 18.3279H122.162V16.5965H132.66V18.3279H132.394C131.178 18.3279 130.413 18.6398 130.133 19.2638C129.852 19.8877 129.696 21.0731 129.696 22.8357V42.2239C129.696 43.9709 129.836 45.1719 130.133 45.7958C130.413 46.4197 131.178 46.7317 132.394 46.7317H132.66V48.4631H122.162V46.7317H122.427C123.644 46.7317 124.408 46.4197 124.689 45.7958C124.97 45.1719 125.126 43.9865 125.126 42.2239V26.0956Z" fill="var(--fill-0, #222323)"/>
<path id="Vector_6" d="M157.211 42.2239C157.211 43.9709 157.352 45.1719 157.648 45.7958C157.929 46.4197 158.693 46.7317 159.91 46.7317H160.175V48.4631H149.677V46.7317H149.943C151.159 46.7317 151.923 46.4197 152.204 45.7958C152.485 45.1719 152.641 43.9865 152.641 42.2239V22.8357C152.641 21.0887 152.501 19.9501 152.204 19.4509C151.923 18.9362 151.159 18.6866 149.943 18.6866H147.79C146.573 18.6866 145.809 18.9362 145.528 19.4509C145.248 19.9657 145.092 21.0887 145.092 22.8357V23.8807C145.092 27.671 145.045 31.1338 144.936 34.3002C144.826 37.4665 144.561 40.165 144.125 42.3955C143.688 44.6416 143.048 46.3729 142.206 47.6208C141.364 48.8686 140.209 49.4925 138.728 49.4925C137.464 49.4925 136.513 49.0402 135.842 48.1355C135.171 47.2308 134.844 46.1858 134.844 44.9847C134.844 43.7837 135.109 42.8478 135.624 42.1771C136.138 41.5064 136.762 41.1788 137.48 41.1788C138.416 41.1788 139.055 41.5376 139.414 42.2551C139.773 42.9726 139.96 43.6901 139.96 44.4388C139.96 45.2187 140.007 45.6866 140.1 45.827C140.194 45.9674 140.319 46.0298 140.506 46.0298C141.114 46.0298 141.613 45.4371 141.988 44.2672C142.362 43.0974 142.658 41.5064 142.877 39.5255C143.095 37.5445 143.251 35.236 143.329 32.6C143.407 29.9639 143.469 27.1719 143.469 24.2239V22.8357C143.469 21.4475 143.313 20.3556 143.017 19.5445C142.721 18.7334 141.878 18.3279 140.506 18.3279H139.975V16.5965H160.159V18.3279H159.894C158.677 18.3279 157.913 18.6398 157.632 19.2638C157.352 19.8877 157.196 21.0731 157.196 22.8357V42.2239H157.211Z" fill="var(--fill-0, #222323)"/>
<path id="Vector_7" d="M182.574 42.2241C182.574 43.9711 182.714 45.1721 183.011 45.796C183.291 46.42 184.056 46.7319 185.272 46.7319H185.537V48.4633H178.004V43.8931L176.6 45.2033C175.446 46.3108 174.244 47.309 172.997 48.1825C171.733 49.056 170.361 49.4927 168.848 49.4927C167.225 49.4927 165.884 48.9 164.808 47.7302C163.732 46.5603 163.186 44.9693 163.186 42.9884C163.186 40.0404 164.168 37.5135 166.149 35.4078C168.13 33.3021 170.813 31.1964 174.229 29.0751L178.004 26.7198V23.881C178.004 22.7735 177.988 21.822 177.941 21.0109C177.91 20.1999 177.785 19.5603 177.598 19.0768C177.395 18.5933 177.083 18.2345 176.662 18.0005C176.225 17.7666 175.602 17.6574 174.775 17.6574C172.872 17.6574 171.343 18.1253 170.205 19.0456C169.066 19.9659 168.489 21.1201 168.489 22.5083C168.489 23.0231 168.536 23.4442 168.629 23.7874C168.723 24.1305 168.77 24.6453 168.77 25.3472C168.77 26.5482 168.489 27.4061 167.912 27.9364C167.335 28.4667 166.742 28.7319 166.134 28.7319C165.276 28.7319 164.621 28.3732 164.168 27.6557C163.716 26.9382 163.498 26.1427 163.498 25.2692C163.498 24.3021 163.872 23.257 164.605 22.1184C165.338 20.9953 166.305 19.9347 167.506 18.9676C168.707 18.0005 170.064 17.1895 171.577 16.5499C173.09 15.9104 174.603 15.5829 176.147 15.5829C177.692 15.5829 178.783 15.7856 179.641 16.2068C180.499 16.6279 181.154 17.205 181.576 17.9382C182.012 18.6713 182.277 19.5603 182.402 20.5742C182.527 21.5881 182.589 22.6955 182.589 23.8966V42.2397L182.574 42.2241ZM178.004 41.8186V28.5915L175.305 30.3229C174.338 30.978 173.387 31.6487 172.482 32.3662C171.562 33.0837 170.751 33.848 170.064 34.6903C169.362 35.517 168.801 36.4373 168.395 37.42C167.99 38.4182 167.771 39.5101 167.771 40.7111C167.771 42.3333 168.115 43.5811 168.816 44.4858C169.518 45.3905 170.392 45.8428 171.421 45.8428C172.357 45.8428 173.215 45.5933 174.011 45.0785C174.806 44.5638 175.602 43.9555 176.428 43.2068L177.988 41.8186H178.004Z" fill="var(--fill-0, #222323)"/>
</g>
</svg>
