<svg preserveAspectRatio="none" width="100%" height="100%" overflow="visible" style="display: block;" viewBox="0 0 27.1545 24.7642" fill="none" xmlns="http://www.w3.org/2000/svg">
<g id="Group 219">
<path id="Rectangle 2087329405" d="M8.51563 6.41417H0.85V23.9142H26.3045V6.41417H19.1455" stroke="var(--stroke-0, #0F0F0F)" stroke-width="1.7"/>
<path id="Union" d="M13.5762 0C14.0456 -2.052e-08 14.4258 0.380167 14.4258 0.849609V14.7031L17.748 11.3818C18.0799 11.0501 18.6183 11.0502 18.9502 11.3818C19.2818 11.7137 19.2817 12.2511 18.9502 12.583L14.2051 17.3281C14.0497 17.4996 13.826 17.6084 13.5762 17.6084C13.3263 17.6083 13.1026 17.4998 12.9473 17.3281L8.20311 12.583C7.87146 12.251 7.87126 11.7137 8.20311 11.3818C8.53497 11.0501 9.07237 11.0502 9.40428 11.3818L12.7265 14.7031V0.849609C12.7265 0.380301 13.1069 0.000217204 13.5762 0Z" fill="var(--fill-0, #0F0F0F)"/>
</g>
</svg>
