<svg preserveAspectRatio="none" width="100%" height="100%" overflow="visible" style="display: block;" viewBox="0 0 46.8861 93.8713" fill="none" xmlns="http://www.w3.org/2000/svg">
<g id="Group">
<path id="Vector" d="M0.0295259 93.8713V91.8898L14.4969 70.7436C18.7781 64.5328 22.2325 59.2093 24.8898 54.8026C27.5471 50.396 29.5843 46.4625 31.0015 43.0614C32.4187 39.6602 33.3931 36.4661 33.895 33.5382C34.3969 30.6103 34.6626 27.5345 34.6626 24.2812C34.6626 21.4716 34.3969 18.869 33.8359 16.4142C33.3045 13.9595 32.4482 11.8301 31.2968 9.99645C30.1453 8.16279 28.6985 6.68404 27.0156 5.58977C25.3031 4.49549 23.2659 3.93356 20.9039 3.93356C19.0143 3.93356 17.2723 4.34761 15.7074 5.17572C14.1426 6.00382 12.814 7.06852 11.692 8.34025C10.57 9.61197 9.71381 11.002 9.09378 12.5399C8.47375 14.0778 8.17849 15.5861 8.17849 17.0649C8.17849 18.7211 8.5328 19.9337 9.21188 20.673C9.89096 21.4124 10.6586 22.1518 11.5148 22.832C12.3711 23.5418 13.1387 24.3699 13.8178 25.3163C14.4969 26.2923 14.8217 27.8006 14.8217 29.9005C14.8217 31.7341 14.3197 33.3016 13.2864 34.6325C12.253 35.9338 10.9834 36.614 9.41855 36.614C7.32226 36.614 5.55075 35.5197 4.16306 33.3312C2.77538 31.1426 2.06677 27.9189 2.06677 23.6305C2.06677 20.466 2.5687 17.4789 3.60208 14.6397C4.60594 11.8005 6.05267 9.31622 7.88324 7.15724C9.7138 5.02784 11.8691 3.28291 14.3493 1.98161C16.8294 0.680308 19.5162 8.18301e-05 22.4392 8.18301e-05C25.3622 8.18301e-05 28.3442 0.591583 31.0015 1.77458C33.6588 2.95759 35.9913 4.55464 37.9695 6.56574C39.9772 8.57685 41.542 11.002 42.664 13.7821C43.7859 16.5917 44.3469 19.6379 44.3469 22.9799C44.3469 26.0557 44.0221 28.8062 43.3726 31.2609C42.723 33.7156 41.4239 36.6436 39.4457 40.0447C37.4675 43.4458 34.6922 47.7342 31.0901 52.9098C27.488 58.0855 22.7344 64.8877 16.8294 73.3758L10.8062 82.0413H33.7474C35.1646 82.0413 36.4046 81.9525 37.4085 81.7751C38.4419 81.5976 39.3572 81.1836 40.2134 80.5329C41.0696 79.8823 41.8668 78.9063 42.6049 77.5754C43.3431 76.2741 44.1107 74.4701 44.8489 72.1928L46.8861 72.8434L42.3983 93.8417H0L0.0295259 93.8713Z" fill="var(--fill-0, #222323)"/>
</g>
</svg>
