<svg preserveAspectRatio="none" width="100%" height="100%" overflow="visible" style="display: block;" viewBox="0 0 95.0001 93.1629" fill="none" xmlns="http://www.w3.org/2000/svg">
<g id="Group">
<path id="Vector" d="M0 46.5958C0 39.1175 0.569713 32.4732 1.70915 26.6919C2.84858 20.9106 4.41531 16.0209 6.38083 12.0804C8.34636 8.13992 10.6537 5.11982 13.2744 3.07767C15.8951 1.03551 18.6867 0.0288086 21.6208 0.0288086C24.5548 0.0288086 27.3464 1.03551 29.9671 3.07767C32.5878 5.11982 34.8952 8.11115 36.8607 12.0804C38.8263 16.0497 40.393 20.9106 41.5324 26.6919C42.6718 32.4732 43.2416 39.1175 43.2416 46.5958C43.2416 54.0741 42.6718 60.7183 41.5324 66.4996C40.393 72.281 38.8263 77.1706 36.8607 81.1111C34.8952 85.0516 32.5878 88.0717 29.9671 90.1139C27.3464 92.156 24.5548 93.1627 21.6208 93.1627C18.6867 93.1627 15.8951 92.156 13.2744 90.1139C10.6537 88.0717 8.34636 85.0804 6.38083 81.1111C4.41531 77.1419 2.84858 72.281 1.70915 66.4996C0.569713 60.7183 0 54.0741 0 46.5958ZM10.3119 46.5958C10.3119 60.3732 11.2234 70.9579 13.018 78.3211C14.8127 85.6844 17.6897 89.3661 21.6208 89.3661C25.5518 89.3661 28.4289 85.6844 30.2235 78.3211C32.0181 70.9579 32.9297 60.3732 32.9297 46.5958C32.9297 32.8184 32.0181 22.2337 30.2235 14.8704C28.4289 7.50714 25.5518 3.8255 21.6208 3.8255C17.6897 3.8255 14.8127 7.50714 13.018 14.8704C11.2234 22.2337 10.3119 32.8184 10.3119 46.5958Z" fill="var(--fill-0, #1D1D1B)"/>
<path id="Vector_2" d="M82.2099 61.9263H95.0001V66.3845H82.2099V79.788C82.2099 83.0094 82.5802 85.2242 83.3494 86.3747C84.09 87.5252 85.8561 88.1004 88.6192 88.1004H89.1035V91.2931H66.4857V88.1004H66.97C69.7331 88.1004 71.4707 87.5252 72.2399 86.3747C72.9805 85.2242 73.3793 83.0382 73.3793 79.788V66.3845H49.793V64.4574L80.7286 0H82.2099V61.9263ZM73.3508 61.9263V22.7226L54.3792 61.9263H73.3508Z" fill="var(--fill-0, #1D1D1B)"/>
</g>
</svg>
