<svg preserveAspectRatio="none" width="100%" height="100%" overflow="visible" style="display: block;" viewBox="0 0 90.9707 93.0293" fill="none" xmlns="http://www.w3.org/2000/svg">
<g id="Group">
<path id="Vector" d="M23.7302 80.0158C23.7302 81.9209 23.8765 83.5329 24.1984 84.8226C24.491 86.1122 25.0469 87.1087 25.8077 87.8122C26.5685 88.5156 27.6511 89.0139 29.0264 89.307C30.4016 89.6001 32.1865 89.7759 34.3225 89.7759H38.3604V93.0293H0V89.7759H4.03794C6.20322 89.7759 7.95884 89.6294 9.33408 89.307C10.7093 89.0139 11.792 88.5156 12.5527 87.8122C13.3135 87.1087 13.8695 86.1122 14.1621 84.8226C14.4547 83.5329 14.6302 81.9209 14.6302 80.0158V18.9048C14.6302 17.6152 14.6302 16.56 14.5717 15.7687C14.5424 14.9773 14.3669 14.3911 14.0743 14.0101C13.7817 13.6291 13.3135 13.3653 12.699 13.2187C12.0846 13.0722 11.2068 13.0136 10.0656 13.0136H4.03794V9.76016H6.05691C13.6646 9.76016 18.7267 6.50678 21.2138 0H23.7302V79.9865V80.0158Z" fill="var(--fill-0, #1D1D1B)"/>
<path id="Vector_2" d="M44.5344 93.0293V91.0656L58.872 70.109C63.1148 63.954 66.5383 58.6782 69.1717 54.3111C71.8051 49.9439 73.8241 46.0457 75.2286 42.6751C76.6331 39.3044 77.5987 36.139 78.0961 33.2373C78.5936 30.3356 78.8569 27.2874 78.8569 24.0633C78.8569 21.2789 78.5936 18.6997 78.0376 16.2669C77.5109 13.8342 76.6624 11.7239 75.5212 9.90671C74.3801 8.0895 72.9463 6.62402 71.2785 5.53955C69.5813 4.45509 67.5624 3.8982 65.2215 3.8982C63.3489 3.8982 61.6225 4.30854 60.0717 5.12922C58.5209 5.94989 57.2042 7.00504 56.0923 8.26536C54.9804 9.52569 54.1318 10.9032 53.5174 12.4274C52.9029 13.9515 52.6103 15.4463 52.6103 16.9118C52.6103 18.5531 52.9614 19.7548 53.6344 20.4876C54.3074 21.2203 55.0682 21.953 55.9167 22.6272C56.7653 23.3306 57.526 24.1513 58.199 25.0892C58.872 26.0564 59.1939 27.5512 59.1939 29.6322C59.1939 31.4494 58.6965 33.0028 57.6723 34.3218C56.6482 35.6114 55.39 36.2855 53.8392 36.2855C51.7617 36.2855 50.0061 35.2011 48.6309 33.0321C47.2556 30.8632 46.5534 27.6685 46.5534 23.4185C46.5534 20.2824 47.0508 17.3221 48.0749 14.5084C49.0698 11.6946 50.5035 9.23259 52.3177 7.09297C54.1318 4.98267 56.2678 3.25339 58.7257 1.96376C61.1836 0.674126 63.8463 5.39881e-10 66.7431 5.39881e-10C69.6399 5.39881e-10 72.5952 0.586196 75.2286 1.75859C77.8621 2.93098 80.1736 4.51371 82.1341 6.50678C84.1238 8.49984 85.6746 10.9032 86.7865 13.6584C87.8984 16.4428 88.4543 19.4617 88.4543 22.7737C88.4543 25.8219 88.1325 28.5477 87.4887 30.9805C86.845 33.4132 85.5576 36.3148 83.5971 39.6855C81.6367 43.0561 78.8862 47.306 75.3164 52.4352C71.7466 57.5644 67.0357 64.3057 61.1836 72.7176L55.2145 81.3054H77.9498C79.3543 81.3054 80.5833 81.2175 81.5781 81.0416C82.6022 80.8657 83.5093 80.4554 84.3579 79.8106C85.2064 79.1658 85.9965 78.1986 86.728 76.8796C87.4595 75.59 88.2203 73.8021 88.9518 71.5452L90.9707 72.19L86.5231 93H44.5051L44.5344 93.0293Z" fill="var(--fill-0, #1D1D1B)"/>
</g>
</svg>
