<svg preserveAspectRatio="none" width="100%" height="100%" overflow="visible" style="display: block;" viewBox="0 0 95.0291 94.029" fill="none" xmlns="http://www.w3.org/2000/svg">
<g id="Group">
<path id="Vector" d="M0 47.058C0 39.5148 0.58193 32.813 1.74579 26.9815C2.90965 21.15 4.50995 16.2179 6.51761 12.2432C8.52527 8.26852 10.8821 5.22222 13.559 3.16235C16.2358 1.10247 19.0873 0.087037 22.0842 0.087037C25.0812 0.087037 27.9326 1.10247 30.6095 3.16235C33.2864 5.22222 35.6432 8.23951 37.6508 12.2432C39.6585 16.2469 41.2588 21.15 42.4227 26.9815C43.5865 32.813 44.1685 39.5148 44.1685 47.058C44.1685 54.6012 43.5865 61.3031 42.4227 67.1346C41.2588 72.9661 39.6585 77.8982 37.6508 81.8728C35.6432 85.8475 33.2864 88.8938 30.6095 90.9537C27.9326 93.0136 25.0812 94.029 22.0842 94.029C19.0873 94.029 16.2358 93.0136 13.559 90.9537C10.8821 88.8938 8.52527 85.8765 6.51761 81.8728C4.50995 77.8691 2.90965 72.9661 1.74579 67.1346C0.58193 61.3031 0 54.6012 0 47.058ZM10.5329 47.058C10.5329 60.9549 11.464 71.6315 13.2971 79.0586C15.1302 86.4858 18.0689 90.1994 22.0842 90.1994C26.0995 90.1994 29.0383 86.4858 30.8714 79.0586C32.7044 71.6315 33.6355 60.9549 33.6355 47.058C33.6355 33.1611 32.7044 22.4846 30.8714 15.0574C29.0383 7.63025 26.0995 3.91667 22.0842 3.91667C18.0689 3.91667 15.1302 7.63025 13.2971 15.0574C11.464 22.4846 10.5329 33.1611 10.5329 47.058Z" fill="var(--fill-0, #1D1D1B)"/>
<path id="Vector_2" d="M51.3262 69.6006C51.3262 66.0031 51.8499 62.8117 52.9265 59.9975C54.0031 57.2123 55.3415 54.7753 56.9418 52.7154C58.5421 50.6556 60.2588 48.9438 62.0628 47.5512C63.8668 46.1586 65.4671 45.0562 66.8928 44.2148C63.6922 41.1105 60.9571 37.7741 58.7167 34.1765C56.4763 30.579 55.3415 26.2852 55.3415 21.2951C55.3415 17.7846 55.8652 14.6802 56.9127 12.0111C57.9602 9.34197 59.2986 7.13704 60.928 5.36728C62.5574 3.59753 64.4487 2.26296 66.5436 1.36358C68.6386 0.464197 70.7917 2.22677e-09 72.9158 2.22677e-09C75.3308 2.22677e-09 77.6294 0.406173 79.8407 1.21852C82.0521 2.03086 84.0306 3.24938 85.7764 4.81605C87.5222 6.41173 88.9188 8.41358 89.9372 10.7926C90.9847 13.2006 91.5084 16.0438 91.5084 19.2932C91.5084 21.9623 90.9556 24.3994 89.8499 26.6333C88.7443 28.8673 87.4349 30.8401 85.9219 32.5519C84.4089 34.2636 82.8668 35.7142 81.2956 36.9327C79.7243 38.1512 78.4732 39.0506 77.5421 39.6309C79.6952 41.5167 81.7902 43.4895 83.856 45.5494C85.9219 47.6093 87.7841 49.8432 89.4426 52.2512C91.072 54.6593 92.4104 57.2414 93.4579 60.0556C94.5054 62.8407 95.0291 66.0031 95.0291 69.5136C95.0291 73.5463 94.4763 77.0858 93.3706 80.1321C92.2649 83.1784 90.7228 85.7315 88.7443 87.7914C86.7657 89.8512 84.4671 91.3889 81.8484 92.4333C79.2297 93.4778 76.4364 93.971 73.4104 93.971C70.3844 93.971 67.3583 93.4488 64.6815 92.4333C62.0046 91.4179 59.6769 89.8512 57.6983 87.7914C55.7198 85.7315 54.1776 83.1784 53.0429 80.1321C51.9081 77.0858 51.3262 73.5463 51.3262 69.5136V69.6006ZM87.4931 75.3741C87.4931 72.1247 86.9403 69.1364 85.8346 66.4963C84.7289 63.8272 83.2741 61.3321 81.5283 59.0401C79.7534 56.7191 77.7749 54.5432 75.5635 52.4833C73.3522 50.4235 71.1409 48.3636 68.9296 46.3037C68.0567 47.1741 67.0965 48.2765 66.0199 49.6401C64.9433 51.0037 63.9541 52.6574 63.0521 54.6012C62.1501 56.5451 61.3936 58.75 60.7825 61.2451C60.1715 63.7401 59.8805 66.5253 59.8805 69.6006C59.8805 76.0414 61.1608 81.0895 63.7504 84.716C66.34 88.3716 69.8897 90.1994 74.4579 90.1994C78.7351 90.1994 81.9939 88.6907 84.2052 85.7025C86.4165 82.6852 87.5222 79.2617 87.5222 75.4031L87.4931 75.3741ZM62.8775 16.1599C62.8775 18.4809 63.2266 20.6278 63.925 22.6006C64.6233 24.5735 65.5835 26.4593 66.7764 28.258C67.9985 30.0568 69.366 31.7685 70.9372 33.4222C72.5084 35.0469 74.1669 36.6426 75.9127 38.1802C76.4364 37.658 77.1348 36.9037 77.9786 35.9173C78.8224 34.9309 79.6371 33.6543 80.4518 32.0586C81.2665 30.463 81.9648 28.6352 82.5467 26.5173C83.1577 24.4284 83.4487 22.0204 83.4487 19.3802C83.4487 13.8969 82.4303 9.95123 80.4227 7.54321C78.415 5.13518 75.9127 3.94568 72.8867 3.94568C70.3262 3.94568 68.0276 5.01914 65.9617 7.16605C63.8959 9.31296 62.8484 12.3302 62.8484 16.1889L62.8775 16.1599Z" fill="var(--fill-0, #1D1D1B)"/>
</g>
</svg>
