<svg width="1754" height="181" viewBox="0 0 1754.03 181.028" fill="none" xmlns="http://www.w3.org/2000/svg" preserveAspectRatio="xMinYMax meet">
<g id="Group">
<path id="Vector" d="M111.738 90.2518C91.0699 136.288 64.4054 175.318 40.8927 175.318C17.3799 175.318 29.9033 123.875 44.8254 90.7758C56.8188 64.3788 92.3808 5.68211 115.921 5.68211C139.462 5.68211 132.127 45.2362 111.738 90.2242M118.515 0C88.978 0 61.7836 52.4905 37.713 77.8394C20.7269 95.9339 12.3594 93.6169 2.15102 116.373C-6.74645 136.012 13.1404 181 40.0559 181C69.5933 181 113.272 144.811 137.844 90.2518C152.264 57.9244 145.459 0 118.515 0Z" fill="var(--fill-0, white)"/>
<path id="Vector_2" d="M312.53 21.7079C317.244 11.116 310.968 0 295.265 0H268.852C250.276 0 237.474 5.68211 225.703 14.4811C229.636 5.95794 223.611 0 217.336 0H185.177L182.555 5.68211C200.601 5.68211 218.647 16.7981 208.968 38.2577C200.601 56.8763 179.933 58.6967 171.844 77.0395C171.844 77.0395 133.409 162.106 131.318 166.767C127.664 175.29 133.409 181 139.685 181H174.187L176.809 175.318C164.788 175.318 155.89 170.16 161.915 156.699L210.279 48.8772C215.244 36.713 226.233 24.0524 237.474 15.2534C245.841 8.52316 256.552 5.68211 268.852 5.68211C281.152 5.68211 290.803 11.116 284.806 24.3007C282.714 28.6864 225.703 155.651 221.017 166.519C217.085 175.318 225.201 181 230.417 181H265.979L268.601 175.318C251.336 175.318 246.65 168.091 251.866 157.747C257.36 146.632 307.817 32.3549 312.53 21.7354" fill="var(--fill-0, white)"/>
<path id="Vector_3" d="M396.986 0C385.495 0 379.721 7.22676 368.23 18.6186C356.739 30.0104 343.657 33.0997 338.414 45.2638C326.114 74.7501 344.94 87.4107 344.94 87.4107C344.94 87.4107 319.057 87.1625 301.29 127.241C288.209 156.451 310.689 181.028 332.417 181.028C357.771 181.028 373.195 160.34 381.841 140.949C385.244 133.199 384.463 125.448 380.279 123.875C376.096 122.303 370.35 126.192 366.166 134.467C360.671 145.832 364.855 154.382 371.382 151.79C363.795 162.381 348.622 175.318 335.039 175.318C309.685 175.318 316.742 151.265 327.452 127.213C336.071 108.346 343.657 100.32 348.622 95.658C352.276 92.0446 357.241 90.2242 362.205 90.2242H367.17L369.513 84.5421H366.891C361.146 84.5421 356.432 79.8805 356.432 73.9502C356.683 64.1306 360.867 53.5111 364.548 45.2362C369.764 33.872 381.283 5.68211 394.365 5.68211C405.605 5.68211 405.605 16.0258 405.605 16.0258C400.891 16.0258 395.676 19.6391 392.273 27.6658C388.87 35.4166 389.93 42.671 394.114 44.4639C398.297 46.2568 405.354 41.0987 409.287 31.2792C413.219 21.1838 411.63 0 396.986 0Z" fill="var(--fill-0, white)"/>
<path id="Vector_4" d="M534.493 26.1212C532.401 30.7827 528.217 40.354 523.001 51.7182C513.602 72.9296 507.828 84.8179 497.899 84.8179H457.623C470.704 55.6074 479.574 35.6925 487.16 18.3703C488.722 14.7569 489.252 8.55075 485.32 5.70969H527.938C536.557 5.70969 540.238 13.4605 534.465 26.1487M480.634 0H446.132L443.51 5.68211C457.372 5.68211 463.369 13.1847 458.404 24.3007C457.623 26.3694 450.566 41.8711 440.637 64.1306C422.87 103.685 399.58 155.651 394.616 166.519C390.683 175.042 396.708 181 402.983 181H437.485L440.107 175.318C428.086 175.318 419.188 170.16 425.213 156.699L455.029 90.5H505.234C526.934 90.5 540.015 72.9296 551.256 47.829C565.899 15.0052 552.818 0 530.337 0H480.662" fill="var(--fill-0, white)"/>
<path id="Vector_5" d="M605.617 18.8668C605.617 19.3909 603.525 27.39 602.744 30.5069C601.712 34.3961 592.284 81.4528 582.606 121.007H548.885C567.963 86.6108 587.32 51.9665 605.617 18.8668ZM633.341 14.4811C635.433 5.43386 631.249 0 624.974 0H593.344L590.722 5.68211C596.998 5.68211 605.617 8.52316 599.871 18.8668C575.828 60.4896 552.288 102.637 528.747 145.032C520.631 158.989 511.482 175.29 496.337 175.29C486.407 175.29 485.877 167.015 490.312 152.783C490.312 152.534 486.128 149.417 486.128 149.417C479.072 164.423 481.415 180.972 496.839 180.972C513.574 180.972 523.782 165.719 530.839 153.307C535.274 145.28 540.768 135.212 545.733 126.661H581.295C577.111 143.735 572.677 165.195 572.398 166.491C570.557 175.539 575.521 180.972 581.797 180.972H613.426L616.299 175.29C604.278 175.29 598.002 170.905 601.405 156.672C608.462 126.165 615.518 93.3135 622.854 60.4896C627.818 37.9819 632.002 20.1632 633.313 14.4535M501.831 155.651C505.485 147.9 504.704 140.149 500.521 138.329C496.337 136.509 490.061 141.17 486.407 148.921C483.005 156.672 483.535 164.423 487.718 166.243C492.153 168.064 498.429 163.402 501.831 155.651Z" fill="var(--fill-0, white)"/>
<path id="Vector_6" d="M831.428 18.8668C831.428 19.3909 829.336 27.39 828.555 30.5069C827.523 34.3961 818.096 81.4528 808.417 121.007H774.696C793.774 86.6108 813.131 51.9665 831.428 18.8668ZM859.125 14.4811C861.217 5.43386 857.033 0 850.757 0H819.128L816.506 5.68211C822.782 5.68211 831.4 8.52316 825.655 18.8668C801.612 60.4896 778.071 102.637 754.531 145.032C746.414 158.989 737.266 175.29 722.12 175.29C712.191 175.29 711.661 167.015 716.096 152.783C716.096 152.534 711.912 149.417 711.912 149.417C704.855 164.423 707.198 180.972 722.623 180.972C739.358 180.972 749.566 165.719 756.623 153.307C761.057 145.28 766.552 135.212 771.517 126.661H807.079C802.895 143.735 798.46 165.195 798.181 166.491C796.34 175.539 801.305 180.972 807.581 180.972H839.21L842.083 175.29C830.061 175.29 823.786 170.905 827.189 156.672C834.245 126.165 841.302 93.3135 848.637 60.4896C853.602 37.9819 857.786 20.1632 859.097 14.4535M727.615 155.651C731.269 147.9 730.488 140.149 726.304 138.329C722.12 136.509 715.845 141.17 712.191 148.921C708.788 156.672 709.318 164.423 713.502 166.243C717.937 168.064 724.212 163.402 727.615 155.651Z" fill="var(--fill-0, white)"/>
<path id="Vector_7" d="M1039.03 21.9837C1043.74 11.3918 1036.4 0 1020.73 0H994.316C975.74 0 961.906 5.68211 951.446 14.4811C953.789 9.57132 953.789 0 943.079 0H908.577L905.955 5.68211C917.725 5.68211 926.874 10.8401 920.849 24.3007C908.828 50.9459 905.425 58.6967 897.309 77.0395C897.309 77.0395 861.496 155.651 856.782 166.491C853.128 175.014 858.874 180.972 865.149 180.972H899.651L902.273 175.29C890.252 175.29 881.355 170.132 887.379 156.672L936.022 48.6013C940.987 36.4372 951.697 24.0248 962.966 15.2534C971.333 8.52316 982.044 5.68211 994.344 5.68211C1006.64 5.68211 1016.29 11.116 1010.3 24.3007C1005.86 33.872 951.725 155.899 946.761 166.519C942.828 175.042 948.852 181 955.128 181H990.69L993.312 175.318C981.291 175.07 972.393 170.16 978.418 156.699C978.418 156.699 1034.37 32.5756 1039.08 21.9837" fill="var(--fill-0, white)"/>
<path id="Vector_8" d="M1157.45 26.1212C1155.36 30.7827 1151.18 40.354 1145.96 51.7182C1136.56 72.9296 1130.79 84.8179 1120.86 84.8179H1080.59C1093.67 55.6074 1102.54 35.6925 1110.12 18.3703C1111.68 14.7569 1112.21 8.55075 1108.28 5.70969H1150.9C1159.52 5.70969 1163.2 13.4605 1157.43 26.1487M1103.6 0H1069.09L1066.47 5.68211C1080.33 5.68211 1086.33 13.1847 1081.37 24.3007C1080.59 26.3694 1073.53 41.8711 1063.6 64.1306C1045.83 103.685 1022.54 155.651 1017.58 166.519C1013.64 175.042 1019.67 181 1025.95 181H1060.45L1063.07 175.318C1051.05 175.318 1042.15 170.16 1048.17 156.699L1077.99 90.5H1128.2C1149.9 90.5 1162.98 72.9296 1174.22 47.829C1188.86 15.0052 1175.78 0 1153.3 0H1103.62" fill="var(--fill-0, white)"/>
<path id="Vector_9" d="M1308.32 25.8453L1304.14 21.7079L1165.57 159.265L1170.54 164.174L1308.32 25.8453ZM1198.76 0L1196.14 5.68211C1208.16 5.68211 1217.31 10.8401 1211.03 24.3007C1207.38 32.3273 1152.74 154.603 1147.25 166.519C1143.31 175.042 1149.34 181 1155.61 181H1190.12L1192.74 175.318C1180.72 175.318 1171.82 170.16 1177.84 156.699C1182.56 146.356 1235.64 27.9416 1241.63 14.4811C1245.56 5.95794 1239.54 0 1233.26 0H1198.76ZM1289.24 0L1286.62 5.68211C1298.64 5.68211 1307.79 10.8401 1301.52 24.3007C1297.86 32.3273 1243.22 154.603 1237.73 166.519C1233.79 175.042 1239.82 181 1246.09 181H1280.6L1283.22 175.318C1271.2 175.318 1262.3 170.16 1268.32 156.699C1273.04 146.356 1326.12 27.9416 1332.11 14.4811C1336.05 5.95794 1330.02 0 1323.75 0H1289.24Z" fill="var(--fill-0, white)"/>
<path id="Vector_10" d="M1418.38 92.817C1397.46 138.853 1369.49 175.29 1346.76 175.29C1320.09 175.29 1336.83 123.848 1351.72 90.7482C1363.74 64.3788 1395.9 5.68211 1423.88 5.68211C1448.2 5.68211 1438.77 47.829 1418.38 92.817ZM1426.5 0C1389.63 0 1345.19 48.1048 1324.28 93.8651C1310.94 123.076 1310.41 181 1344.13 181C1377.86 181 1421 145.059 1445.83 90.2518C1460.22 58.2002 1453.41 0 1426.47 0" fill="var(--fill-0, white)"/>
<path id="Vector_11" d="M1578.15 26.1212C1576.05 30.7827 1571.87 40.354 1566.65 51.7182C1557.26 72.9296 1551.48 84.8179 1541.55 84.8179H1501.28C1514.36 55.6074 1523.23 35.6925 1530.81 18.3703C1532.38 14.7569 1532.91 8.55075 1528.97 5.70969H1571.59C1580.21 5.70969 1583.89 13.4605 1578.12 26.1487M1524.29 0H1489.79L1487.16 5.68211C1501.03 5.68211 1507.02 13.1847 1502.06 24.3007C1501.28 26.3694 1494.22 41.8711 1484.29 64.1306C1466.52 103.685 1443.23 155.651 1438.27 166.519C1434.34 175.042 1440.36 181 1446.64 181H1481.14L1483.76 175.318C1471.74 175.318 1462.84 170.16 1468.87 156.699L1498.68 90.5H1548.89C1570.59 90.5 1583.67 72.9296 1594.91 47.829C1609.55 15.0052 1596.47 0 1573.99 0H1524.32" fill="var(--fill-0, white)"/>
<path id="Vector_12" d="M1729.01 25.8453L1724.83 21.7079L1586.26 159.265L1591.23 164.174L1729.01 25.8453ZM1619.45 0L1616.83 5.68211C1628.85 5.68211 1638 10.8401 1631.73 24.3007C1628.07 32.3273 1573.43 154.603 1567.94 166.519C1564.01 175.042 1570.03 181 1576.31 181H1610.81L1613.43 175.318C1601.41 175.318 1592.51 170.16 1598.53 156.699C1603.25 146.356 1656.33 27.9416 1662.32 14.4811C1666.26 5.95794 1660.23 0 1653.96 0H1619.45ZM1709.91 0L1707.28 5.68211C1719.31 5.68211 1728.45 10.8401 1722.18 24.3007C1718.53 32.3273 1663.89 154.603 1658.39 166.519C1654.46 175.042 1660.48 181 1666.76 181H1701.26L1703.88 175.318C1691.86 175.318 1682.96 170.16 1688.99 156.699C1693.7 146.356 1746.78 27.9416 1752.78 14.4811C1756.71 5.95794 1750.68 0 1744.41 0H1709.91Z" fill="var(--fill-0, white)"/>
</g>
</svg>
