<svg width="24" height="24" viewBox="0 0 24 24" fill="none" xmlns="http://www.w3.org/2000/svg">
  <path d="M3 3L21 21" stroke="currentColor" stroke-width="1.5" stroke-linecap="round"/>
  <path d="M10.58 10.58C10.21 10.95 10 11.45 10 12C10 13.1 10.9 14 12 14C12.55 14 13.05 13.79 13.42 13.42" stroke="currentColor" stroke-width="1.5" stroke-linecap="round" stroke-linejoin="round"/>
  <path d="M9.88 5.1C10.58 4.96 11.28 4.88 12 4.88C16.97 4.88 21.17 8.24 22 12C21.64 13.57 20.82 14.97 19.7 16.04M6.61 6.61C4.56 8.05 3.09 10.41 2 12C3.24 14.72 6.24 17.12 10 17.72" stroke="currentColor" stroke-width="1.5" stroke-linecap="round" stroke-linejoin="round"/>
  <path d="M14.12 14.12C13.67 14.57 13.12 14.88 12.5 14.97" stroke="currentColor" stroke-width="1.5" stroke-linecap="round" stroke-linejoin="round"/>
</svg>
