<svg preserveAspectRatio="none" width="100%" height="100%" overflow="visible" style="display: block;" viewBox="0 0 20.48 20.48" fill="none" xmlns="http://www.w3.org/2000/svg">
<path id="Vector" fill-rule="evenodd" clip-rule="evenodd" d="M10.24 19.2C12.5201 19.2 14.6005 18.3484 16.1818 16.9463C15.5694 15.9163 14.6997 15.0632 13.6579 14.4709C12.6162 13.8786 11.4383 13.5674 10.24 13.568C9.04158 13.5675 7.86365 13.8788 6.82191 14.4713C5.78018 15.0637 4.91048 15.917 4.29824 16.9472C5.93542 18.4016 8.05012 19.2034 10.24 19.2ZM10.24 12.288C11.6024 12.2872 12.9434 12.6265 14.1415 13.2752C15.3396 13.9238 16.3568 14.8613 17.1008 16.0026C18.4594 14.3901 19.2031 12.3485 19.2 10.24C19.2 5.29152 15.1885 1.28 10.24 1.28C5.29152 1.28 1.28 5.29152 1.28 10.24C1.28 12.4348 2.06933 14.4452 3.3792 16.0026C4.12331 14.8613 5.14051 13.9239 6.33856 13.2753C7.53661 12.6266 8.87762 12.2873 10.24 12.288ZM20.48 10.24C20.48 12.928 19.4441 15.3745 17.7493 17.2015C16.7918 18.2368 15.6303 19.0626 14.3379 19.6269C13.0455 20.1911 11.6502 20.4816 10.24 20.48C8.45317 20.4821 6.6971 20.0151 5.14731 19.1258C3.58266 18.2293 2.2826 16.9354 1.37872 15.3751C0.474842 13.8147 -0.000778119 12.0433 9.55565e-07 10.24C9.55565e-07 4.58496 4.58496 0 10.24 0C15.895 0 20.48 4.58496 20.48 10.24ZM12.16 7.78411C12.16 8.29332 11.9577 8.78168 11.5976 9.14175C11.2376 9.50182 10.7492 9.70411 10.24 9.70411C9.73079 9.70411 9.24243 9.50182 8.88236 9.14175C8.52229 8.78168 8.32 8.29332 8.32 7.78411C8.32 7.27489 8.52229 6.78653 8.88236 6.42646C9.24243 6.06639 9.73079 5.86411 10.24 5.86411C10.7492 5.86411 11.2376 6.06639 11.5976 6.42646C11.9577 6.78653 12.16 7.27489 12.16 7.78411ZM13.44 7.78411C13.44 8.6328 13.1029 9.44673 12.5027 10.0468C11.9026 10.647 11.0887 10.9841 10.24 10.9841C9.39131 10.9841 8.57738 10.647 7.97726 10.0468C7.37714 9.44673 7.04 8.6328 7.04 7.78411C7.04 6.93541 7.37714 6.12148 7.97726 5.52137C8.57738 4.92125 9.39131 4.58411 10.24 4.58411C11.0887 4.58411 11.9026 4.92125 12.5027 5.52137C13.1029 6.12148 13.44 6.93541 13.44 7.78411Z" fill="var(--fill-0, black)"/>
</svg>
