<svg preserveAspectRatio="none" width="100%" height="100%" overflow="visible" style="display: block;" viewBox="0 0 579.064 52.8502" fill="none" xmlns="http://www.w3.org/2000/svg">
<g id="Group">
<path id="Vector" d="M0 50.5351H0.219886C1.34519 50.5351 2.04365 50.2764 2.30234 49.7591C2.54809 49.2417 2.67744 48.2587 2.67744 46.7971V16.9443C2.67744 15.4956 2.54809 14.4997 2.30234 13.9823C2.04365 13.4649 1.35812 13.2062 0.219886 13.2062H0V11.7705H9.81727C11.4211 11.7705 12.831 12.0163 14.0339 12.5207C15.2368 13.0122 16.2457 13.6848 17.0476 14.5256C17.8496 15.3663 18.4446 16.3493 18.8326 17.4487C19.2206 18.5611 19.4147 19.7252 19.4147 20.954C19.4147 22.8295 19.1042 24.3558 18.4834 25.5457C17.8625 26.7357 17.177 27.667 16.4268 28.3525C15.5343 29.1544 14.5254 29.7624 13.3872 30.1892V30.4738C14.7324 30.7842 15.9223 31.3533 16.9571 32.194C17.8496 32.9184 18.6645 33.9661 19.4147 35.3242C20.1649 36.6823 20.527 38.5449 20.527 40.9248C20.527 42.5287 20.2683 44.0032 19.7639 45.3484C19.2594 46.6936 18.5222 47.8448 17.578 48.8149C16.6208 49.7849 15.4696 50.561 14.1244 51.1172C12.7663 51.6734 11.253 51.945 9.59738 51.945H0V50.5093V50.5351ZM8.7049 13.5037C7.81242 13.5037 7.25624 13.7495 7.03636 14.2539C6.81647 14.7454 6.70006 15.6509 6.70006 16.9572V29.5813H10.0501C11.6281 29.5813 12.8827 28.8828 13.8011 27.4859C14.7194 26.089 15.1851 24.0065 15.1851 21.2515C15.1851 18.6516 14.7194 16.7115 13.7752 15.431C12.831 14.1505 11.5246 13.5037 9.8302 13.5037H8.71784H8.7049ZM6.70006 31.3016V46.7971C6.70006 48.1035 6.77767 48.9959 6.94581 49.5004C7.11396 49.9919 7.69601 50.2506 8.7049 50.2506H9.59738C11.4988 50.2506 13.025 49.5133 14.1503 48.0388C15.2756 46.5643 15.8447 44.1972 15.8447 40.9507C15.8447 37.7041 15.3403 35.4665 14.3443 33.7979C13.3484 32.1294 11.9127 31.3016 10.0372 31.3016H6.68712H6.70006Z" fill="var(--fill-0, #222323)"/>
<path id="Vector_2" d="M23.2568 51.9709V50.5351H23.4767C24.6149 50.5351 25.3004 50.2764 25.5591 49.7591C25.8178 49.2417 25.9342 48.2587 25.9342 46.7971V16.9443C25.9342 15.4956 25.8049 14.4997 25.5591 13.9823C25.3004 13.4649 24.6149 13.2062 23.4767 13.2062H23.2568V11.7705H40.8089L42.9043 21.5231L42.0118 21.8077C40.6666 18.9362 39.5542 16.8279 38.6359 15.4956C37.7305 14.1505 36.7733 13.4908 35.7515 13.4908H32.4015C31.7806 13.4908 31.302 13.5425 30.9787 13.6589C30.6553 13.7754 30.4096 13.9694 30.2673 14.2281C30.125 14.4867 30.0345 14.8489 29.9957 15.2887C29.9698 15.7285 29.9569 16.2717 29.9569 16.9184V30.4091H32.1945C33.2034 30.4091 34.0959 30.1763 34.8461 29.6977C35.6092 29.2191 35.9843 28.1197 35.9843 26.3994V26.1148H37.0967V36.4495H35.9843V36.1649C35.9843 34.4446 35.6092 33.3452 34.8461 32.8666C34.083 32.3881 33.2034 32.1552 32.1945 32.1552H29.9569V46.7971C29.9569 47.4438 29.9698 47.987 29.9957 48.4268C30.0215 48.8666 30.1121 49.2158 30.2673 49.4874C30.4225 49.7591 30.6553 49.9531 30.9787 50.0566C31.302 50.173 31.7806 50.2247 32.4015 50.2247H36.4241C37.433 50.2247 38.3901 49.5521 39.3085 48.2199C40.2139 46.8747 41.3392 44.7793 42.6844 41.9078L43.5769 42.1924L41.4815 51.945H23.2697L23.2568 51.9709Z" fill="var(--fill-0, #222323)"/>
<path id="Vector_3" d="M51.2078 24.4075C51.2078 27.1625 51.6217 29.0898 52.4366 30.2021C53.2514 31.3145 54.3379 31.8707 55.6702 31.8707C56.4463 31.8707 57.1318 31.7025 57.7268 31.3792C58.3218 31.0558 58.8262 30.7066 59.2401 30.3185V16.9443C59.2401 15.4956 59.1108 14.4997 58.865 13.9823C58.6063 13.4649 57.9208 13.2062 56.7826 13.2062H56.5627V11.7705H65.9402V13.2062H65.7203C64.582 13.2062 63.8965 13.4649 63.6508 13.9823C63.3921 14.4997 63.2757 15.4827 63.2757 16.9443V46.7971C63.2757 48.2457 63.405 49.2417 63.6508 49.7591C63.9095 50.2764 64.595 50.5351 65.7203 50.5351H65.9402V51.9709H56.5627V50.5351H56.7826C57.9079 50.5351 58.6063 50.2764 58.865 49.7591C59.1108 49.2417 59.2401 48.2587 59.2401 46.7971V31.6379C58.7098 32.1682 57.9855 32.6856 57.093 33.1641C56.2005 33.6427 55.1269 33.8755 53.8723 33.8755C53.1609 33.8755 52.4107 33.7203 51.6217 33.4228C50.8327 33.1124 50.1084 32.595 49.4616 31.8448C48.802 31.0946 48.2587 30.1245 47.8319 28.9216C47.4051 27.7187 47.1852 26.2183 47.1852 24.4204V16.9572C47.1852 15.5086 47.0558 14.5126 46.8101 13.9952C46.5514 13.4779 45.8659 13.2192 44.7276 13.2192H44.5077V11.7834H53.8852V13.2192H53.6653C52.5271 13.2192 51.8416 13.4779 51.5829 13.9952C51.3242 14.5126 51.2078 15.4956 51.2078 16.9572V24.4204V24.4075Z" fill="var(--fill-0, #222323)"/>
<path id="Vector_4" d="M68.4492 51.9709V50.5351H68.669C69.7943 50.5351 70.4928 50.2764 70.7515 49.7591C70.9972 49.2417 71.1266 48.2587 71.1266 46.7971V16.9443C71.1266 15.4956 70.9972 14.4997 70.7515 13.9823C70.4928 13.4649 69.8073 13.2062 68.669 13.2062H68.4492V11.7705H86.0012L88.0966 21.5231L87.2041 21.8077C85.859 18.9362 84.7466 16.8279 83.8282 15.4956C82.9228 14.1505 81.9657 13.4908 80.9439 13.4908H77.5938C76.973 13.4908 76.4944 13.5425 76.171 13.6589C75.8477 13.7754 75.6019 13.9694 75.4596 14.2281C75.3044 14.4997 75.2268 14.8489 75.188 15.2887C75.1621 15.7285 75.1363 16.2717 75.1363 16.9184V30.4091H77.3739C78.3828 30.4091 79.2753 30.1763 80.0255 29.6977C80.7886 29.2191 81.1637 28.1197 81.1637 26.3994V26.1148H82.2761V36.4495H81.1637V36.1649C81.1637 34.4446 80.7886 33.3452 80.0255 32.8666C79.2624 32.3881 78.3828 32.1552 77.3739 32.1552H75.1363V46.7971C75.1363 47.4438 75.1492 47.987 75.188 48.4268C75.2139 48.8666 75.3044 49.2158 75.4596 49.4874C75.6019 49.7591 75.8477 49.9531 76.171 50.0566C76.4944 50.173 76.973 50.2247 77.5938 50.2247H81.6164C82.6253 50.2247 83.5825 49.5521 84.5008 48.2199C85.4063 46.8747 86.5316 44.7793 87.8767 41.9078L88.7692 42.1924L86.6738 51.945H68.4621L68.4492 51.9709Z" fill="var(--fill-0, #222323)"/>
<path id="Vector_5" d="M97.9525 32.1552V46.7971C97.9525 48.2457 98.0819 49.2417 98.3276 49.7591C98.5863 50.2764 99.2719 50.5351 100.41 50.5351H100.63V51.9709H91.2525V50.5351H91.4724C92.6106 50.5351 93.2961 50.2764 93.5548 49.7591C93.8135 49.2417 93.9299 48.2587 93.9299 46.7971V16.9443C93.9299 15.4956 93.8006 14.4997 93.5548 13.9823C93.2961 13.4649 92.6106 13.2062 91.4724 13.2062H91.2525V11.7705H100.41C101.872 11.7705 103.269 11.9645 104.601 12.3396C105.946 12.7277 107.123 13.3097 108.158 14.1246C109.193 14.9395 110.007 15.9613 110.641 17.2289C111.275 18.4964 111.585 20.0227 111.585 21.8206C111.585 23.6185 111.275 25.1706 110.641 26.4641C110.02 27.7705 109.193 28.8311 108.158 29.6848C107.136 30.5255 105.946 31.1464 104.601 31.5473C103.256 31.9483 101.859 32.1552 100.41 32.1552H97.9525ZM99.9703 13.5037C99.1943 13.5037 98.6639 13.7495 98.3923 14.2539C98.1078 14.7454 97.9655 15.6509 97.9655 16.9572V30.4479H100.423C102.48 30.4479 104.109 29.7365 105.312 28.3008C106.515 26.865 107.123 24.7179 107.123 21.8465C107.123 18.975 106.515 16.8667 105.286 15.5344C104.071 14.1893 102.441 13.5296 100.423 13.5296H99.9703V13.5037Z" fill="var(--fill-0, #222323)"/>
<path id="Vector_6" d="M132.604 46.7971C132.604 48.2457 132.733 49.2417 132.979 49.7591C133.238 50.2764 133.923 50.5351 135.061 50.5351H135.281V51.9709H125.904V50.5351H126.124C127.249 50.5351 127.947 50.2764 128.206 49.7591C128.465 49.2417 128.581 48.2587 128.581 46.7971V32.1552H120.989V46.7971C120.989 48.2457 121.118 49.2417 121.364 49.7591C121.622 50.2764 122.308 50.5351 123.433 50.5351H123.653V51.9709H114.276V50.5351H114.495C115.621 50.5351 116.319 50.2764 116.578 49.7591C116.824 49.2417 116.953 48.2587 116.953 46.7971V16.9443C116.953 15.4956 116.824 14.4997 116.578 13.9823C116.319 13.4649 115.634 13.2062 114.495 13.2062H114.276V11.7705H123.653V13.2062H123.433C122.295 13.2062 121.609 13.4649 121.364 13.9823C121.105 14.4997 120.989 15.4827 120.989 16.9443V30.435H128.581V16.9443C128.581 15.4956 128.452 14.4997 128.206 13.9823C127.947 13.4649 127.262 13.2062 126.124 13.2062H125.904V11.7705H135.281V13.2062H135.061C133.923 13.2062 133.238 13.4649 132.979 13.9823C132.72 14.4997 132.604 15.4827 132.604 16.9443V46.7971Z" fill="var(--fill-0, #222323)"/>
<path id="Vector_7" d="M144.478 46.7971C144.478 48.2457 144.607 49.2417 144.853 49.7591C145.111 50.2764 145.797 50.5351 146.935 50.5351H147.155V51.9709H137.777V50.5351H137.997C139.136 50.5351 139.821 50.2764 140.08 49.7591C140.338 49.2417 140.455 48.2587 140.455 46.7971V16.9443C140.455 15.4956 140.326 14.4997 140.08 13.9823C139.821 13.4649 139.136 13.2062 137.997 13.2062H137.777V11.7705H147.155V13.2062H146.935C145.797 13.2062 145.111 13.4649 144.853 13.9823C144.594 14.4997 144.478 15.4827 144.478 16.9443V42.2571L152.51 16.9443C152.51 15.4956 152.38 14.4997 152.135 13.9823C151.876 13.4649 151.191 13.2062 150.052 13.2062H149.832V11.7705H159.21V13.2062H158.99C157.852 13.2062 157.166 13.4649 156.908 13.9823C156.649 14.4997 156.532 15.4827 156.532 16.9443V46.7971C156.532 48.2457 156.662 49.2417 156.908 49.7591C157.166 50.2764 157.852 50.5351 158.99 50.5351H159.21V51.9709H149.832V50.5351H150.052C151.178 50.5351 151.876 50.2764 152.135 49.7591C152.393 49.2417 152.51 48.2587 152.51 46.7971V21.536L144.478 46.7971Z" fill="var(--fill-0, #222323)"/>
<path id="Vector_8" d="M168.406 46.7969C168.406 48.2456 168.536 49.2416 168.781 49.7589C169.04 50.2763 169.726 50.535 170.864 50.535H171.084V51.9707H161.706V50.535H161.926C163.064 50.535 163.75 50.2763 164.009 49.7589C164.267 49.2416 164.384 48.2585 164.384 46.7969V16.9442C164.384 15.4955 164.254 14.4995 164.009 13.9822C163.75 13.4648 163.064 13.2061 161.926 13.2061H161.706V11.7704H171.084V13.2061H170.864C169.726 13.2061 169.04 13.4648 168.781 13.9822C168.523 14.4995 168.406 15.4826 168.406 16.9442V42.2569L176.439 16.9442C176.439 15.4955 176.309 14.4995 176.063 13.9822C175.805 13.4648 175.119 13.2061 173.981 13.2061H173.761V11.7704H183.139V13.2061H182.919C181.781 13.2061 181.095 13.4648 180.836 13.9822C180.578 14.4995 180.461 15.4826 180.461 16.9442V46.7969C180.461 48.2456 180.591 49.2416 180.836 49.7589C181.095 50.2763 181.781 50.535 182.919 50.535H183.139V51.9707H173.761V50.535H173.981C175.106 50.535 175.805 50.2763 176.063 49.7589C176.322 49.2416 176.439 48.2585 176.439 46.7969V21.5359L168.406 46.7969ZM172.429 8.91186C170.734 8.91186 169.299 8.43328 168.148 7.47613C166.983 6.51898 166.401 5.17379 166.401 3.45351C166.401 2.34114 166.647 1.48746 167.139 0.892479C167.63 0.297493 168.199 0 168.859 0C169.454 0 169.933 0.245755 170.308 0.711396C170.683 1.18997 170.864 1.75909 170.864 2.40581C170.864 2.97493 170.773 3.4147 170.592 3.69926C170.411 3.98382 170.217 4.21664 169.984 4.38479C169.764 4.55294 169.557 4.69522 169.363 4.81163C169.169 4.92804 169.079 5.13499 169.079 5.44542C169.079 6.01453 169.389 6.48017 169.997 6.8294C170.605 7.17864 171.42 7.34678 172.429 7.34678C173.438 7.34678 174.253 7.17864 174.861 6.8294C175.469 6.48017 175.779 6.02747 175.779 5.44542C175.779 5.13499 175.688 4.92804 175.507 4.81163C175.326 4.69522 175.132 4.55294 174.899 4.38479C174.68 4.21664 174.473 3.98382 174.279 3.69926C174.085 3.4147 173.994 2.98786 173.994 2.40581C173.994 1.75909 174.175 1.18997 174.55 0.711396C174.925 0.232821 175.404 0 175.999 0C176.658 0 177.228 0.297493 177.719 0.892479C178.211 1.48746 178.456 2.34114 178.456 3.45351C178.456 5.17379 177.874 6.51898 176.71 7.47613C175.546 8.43328 174.123 8.91186 172.429 8.91186Z" fill="var(--fill-0, #222323)"/>
<path id="Vector_9" d="M204.222 33.1383L212.254 17.6945C212.578 17.0478 212.875 16.4269 213.147 15.8578C213.418 15.2887 213.548 14.7842 213.548 14.3703C213.548 13.6072 212.966 13.2192 211.802 13.2192H211.582V11.7834H219.394V13.2192C218.049 13.2192 216.988 13.6201 216.174 14.4221C215.372 15.224 214.583 16.3622 213.807 17.8109L209.525 26.076L216.264 47.0816C216.678 48.4268 217.118 49.3322 217.583 49.8108C218.049 50.2894 218.722 50.5222 219.614 50.5222H219.834V51.9579H210.366V50.5222H210.586C211.155 50.5222 211.595 50.4317 211.905 50.2635C212.216 50.0954 212.371 49.7332 212.371 49.2029C212.371 48.6726 212.216 47.9612 211.918 47.0816L206.835 31.1852L204.196 36.2425V46.81C204.196 48.2587 204.326 49.2546 204.571 49.772C204.83 50.2894 205.516 50.5481 206.641 50.5481H206.861V51.9838H197.483V50.5481H197.703C198.828 50.5481 199.527 50.2894 199.786 49.772C200.031 49.2546 200.161 48.2716 200.161 46.81V16.9443C200.161 15.4956 200.031 14.4997 199.786 13.9823C199.527 13.4649 198.841 13.2062 197.703 13.2062H197.483V11.7705H206.861V13.2062H206.641C205.503 13.2062 204.817 13.4649 204.571 13.9823C204.313 14.4997 204.196 15.4827 204.196 16.9443V33.1383H204.222Z" fill="var(--fill-0, #222323)"/>
<path id="Vector_10" d="M220.779 31.8705C220.779 28.5075 221.038 25.5196 221.555 22.9198C222.073 20.32 222.784 18.1211 223.676 16.3491C224.569 14.5771 225.617 13.219 226.807 12.3006C227.997 11.3823 229.264 10.9166 230.596 10.9166C231.929 10.9166 233.196 11.3823 234.386 12.3006C235.576 13.219 236.624 14.5641 237.516 16.3491C238.409 18.1341 239.12 20.32 239.638 22.9198C240.155 25.5196 240.414 28.5075 240.414 31.8705C240.414 35.2334 240.155 38.2213 239.638 40.8211C239.12 43.421 238.409 45.6198 237.516 47.3919C236.624 49.1768 235.576 50.522 234.386 51.4403C233.196 52.3587 231.929 52.8243 230.596 52.8243C229.264 52.8243 227.997 52.3587 226.807 51.4403C225.617 50.522 224.569 49.1768 223.676 47.3919C222.784 45.6069 222.073 43.421 221.555 40.8211C221.038 38.2213 220.779 35.2334 220.779 31.8705ZM225.474 31.8705C225.474 38.0661 225.888 42.826 226.703 46.1372C227.518 49.4484 228.824 51.104 230.609 51.104C232.394 51.104 233.701 49.4484 234.516 46.1372C235.33 42.826 235.744 38.0661 235.744 31.8705C235.744 25.6749 235.33 20.915 234.516 17.6038C233.701 14.2925 232.394 12.6369 230.609 12.6369C228.824 12.6369 227.518 14.2925 226.703 17.6038C225.888 20.915 225.474 25.6749 225.474 31.8705Z" fill="var(--fill-0, #222323)"/>
<path id="Vector_11" d="M249.843 33.1383L257.875 17.6945C258.198 17.0478 258.496 16.4269 258.767 15.8578C259.039 15.2887 259.168 14.7842 259.168 14.3703C259.168 13.6072 258.586 13.2192 257.422 13.2192H257.202V11.7834H265.015V13.2192C263.67 13.2192 262.609 13.6201 261.794 14.4221C260.992 15.224 260.203 16.3622 259.427 17.8109L255.146 26.076L261.885 47.0816C262.299 48.4268 262.738 49.3322 263.204 49.8108C263.67 50.2894 264.342 50.5222 265.235 50.5222H265.455V51.9579H255.987V50.5222H256.206C256.776 50.5222 257.215 50.4317 257.526 50.2635C257.836 50.0954 257.991 49.7332 257.991 49.2029C257.991 48.6726 257.836 47.9612 257.539 47.0816L252.455 31.1852L249.817 36.2425V46.81C249.817 48.2587 249.946 49.2546 250.192 49.772C250.451 50.2894 251.136 50.5481 252.261 50.5481H252.481V51.9838H243.104V50.5481H243.324C244.449 50.5481 245.147 50.2894 245.406 49.772C245.652 49.2546 245.781 48.2716 245.781 46.81V16.9443C245.781 15.4956 245.652 14.4997 245.406 13.9823C245.147 13.4649 244.462 13.2062 243.324 13.2062H243.104V11.7705H252.481V13.2062H252.261C251.123 13.2062 250.438 13.4649 250.192 13.9823C249.933 14.4997 249.817 15.4827 249.817 16.9443V33.1383H249.843Z" fill="var(--fill-0, #222323)"/>
<path id="Vector_12" d="M285.749 11.7831L287.844 21.5357L286.952 21.8203C285.606 18.9488 284.481 16.8405 283.576 15.5083C282.67 14.1631 281.713 13.5034 280.691 13.5034H278.906V46.7968C278.906 48.2454 279.074 49.2414 279.424 49.7588C279.76 50.2761 280.562 50.5348 281.817 50.5348H282.256V51.9706H271.547V50.5348H271.986C273.241 50.5348 274.03 50.2761 274.379 49.7588C274.716 49.2414 274.897 48.2584 274.897 46.7968V13.5034H273.112C272.103 13.5034 271.146 14.176 270.227 15.5083C269.322 16.8535 268.197 18.9488 266.851 21.8203L265.959 21.5357L268.054 11.7831H285.736H285.749Z" fill="var(--fill-0, #222323)"/>
<path id="Vector_13" d="M290.12 51.9709V50.5351H290.34C291.478 50.5351 292.164 50.2764 292.422 49.7591C292.681 49.2417 292.797 48.2587 292.797 46.7971V16.9443C292.797 15.4956 292.668 14.4997 292.422 13.9823C292.164 13.4649 291.478 13.2062 290.34 13.2062H290.12V11.7705H307.672L309.768 21.5231L308.875 21.8077C307.53 18.9362 306.418 16.8279 305.499 15.4956C304.594 14.1505 303.637 13.4908 302.615 13.4908H299.265C298.644 13.4908 298.165 13.5425 297.842 13.6589C297.519 13.7754 297.273 13.9694 297.131 14.2281C296.988 14.4867 296.898 14.8489 296.859 15.2887C296.833 15.7285 296.82 16.2717 296.82 16.9184V30.4091H299.058C300.067 30.4091 300.959 30.1763 301.709 29.6977C302.472 29.2191 302.848 28.1197 302.848 26.3994V26.1148H303.96V36.4495H302.848V36.1649C302.848 34.4446 302.472 33.3452 301.709 32.8666C300.946 32.3881 300.067 32.1552 299.058 32.1552H296.82V46.7971C296.82 47.4438 296.833 47.987 296.859 48.4268C296.885 48.8666 296.975 49.2158 297.131 49.4874C297.286 49.7591 297.519 49.9531 297.842 50.0566C298.165 50.173 298.644 50.2247 299.265 50.2247H303.287C304.296 50.2247 305.253 49.5521 306.172 48.2199C307.077 46.8747 308.202 44.7793 309.548 41.9078L310.44 42.1924L308.345 51.945H290.133L290.12 51.9709Z" fill="var(--fill-0, #222323)"/>
<path id="Vector_14" d="M319.636 46.7969C319.636 48.2456 319.766 49.2416 320.012 49.7589C320.27 50.2763 320.956 50.535 322.081 50.535H322.301V51.9707H312.923V50.535H313.143C314.269 50.535 314.967 50.2763 315.226 49.7589C315.472 49.2416 315.601 48.2585 315.601 46.7969V16.9442C315.601 15.4955 315.472 14.4995 315.226 13.9822C314.967 13.4648 314.282 13.2061 313.143 13.2061H312.923V11.7704H322.301V13.2061H322.081C320.943 13.2061 320.257 13.4648 320.012 13.9822C319.753 14.4995 319.636 15.4826 319.636 16.9442V42.2569L327.669 16.9442C327.669 15.4955 327.539 14.4995 327.294 13.9822C327.035 13.4648 326.349 13.2061 325.224 13.2061H325.004V11.7704H334.382V13.2061H334.162C333.024 13.2061 332.338 13.4648 332.079 13.9822C331.821 14.4995 331.704 15.4826 331.704 16.9442V46.7969C331.704 48.2456 331.834 49.2416 332.079 49.7589C332.338 50.2763 333.024 50.535 334.162 50.535H334.382V51.9707H325.004V50.535H325.224C326.349 50.535 327.048 50.2763 327.294 49.7589C327.552 49.2416 327.669 48.2585 327.669 46.7969V21.5359L319.636 46.7969ZM323.646 8.91186C321.952 8.91186 320.516 8.43328 319.365 7.47613C318.201 6.51898 317.619 5.17379 317.619 3.45351C317.619 2.34114 317.864 1.48746 318.356 0.892479C318.847 0.297493 319.417 0 320.076 0C320.671 0 321.15 0.245755 321.525 0.711396C321.9 1.18997 322.081 1.75909 322.081 2.40581C322.081 2.97493 321.99 3.4147 321.809 3.69926C321.628 3.98382 321.434 4.21664 321.201 4.38479C320.982 4.55294 320.775 4.69522 320.581 4.81163C320.387 4.92804 320.296 5.13499 320.296 5.44542C320.296 6.01453 320.607 6.48017 321.214 6.8294C321.822 7.17864 322.637 7.34678 323.646 7.34678C324.655 7.34678 325.47 7.17864 326.078 6.8294C326.686 6.48017 326.996 6.02747 326.996 5.44542C326.996 5.13499 326.906 4.92804 326.725 4.81163C326.543 4.69522 326.349 4.55294 326.117 4.38479C325.897 4.21664 325.69 3.98382 325.496 3.69926C325.302 3.4147 325.211 2.98786 325.211 2.40581C325.211 1.75909 325.392 1.18997 325.767 0.711396C326.142 0.232821 326.621 0 327.216 0C327.876 0 328.445 0.297493 328.936 0.892479C329.428 1.48746 329.674 2.34114 329.674 3.45351C329.674 5.17379 329.092 6.51898 327.927 7.47613C326.763 8.43328 325.341 8.91186 323.646 8.91186Z" fill="var(--fill-0, #222323)"/>
<path id="Vector_15" d="M357.625 11.7831V13.2189H357.405C356.267 13.2189 355.582 13.4776 355.336 13.9949C355.077 14.5123 354.961 15.4953 354.961 16.9569V46.8097C354.961 48.2584 355.09 49.2543 355.336 49.7717C355.595 50.2891 356.28 50.5478 357.405 50.5478H357.625V51.9835H348.248V50.5478H348.468C349.593 50.5478 350.291 50.2891 350.55 49.7717C350.796 49.2543 350.925 48.2713 350.925 46.8097V16.944C350.925 16.2973 350.912 15.754 350.886 15.3143C350.861 14.8745 350.77 14.5253 350.615 14.2536C350.46 13.982 350.227 13.788 349.903 13.6845C349.58 13.5681 349.102 13.5164 348.481 13.5164H347.588C346.45 13.5164 345.726 13.7233 345.402 14.1243C345.079 14.5253 344.911 15.3789 344.911 16.6853V24.4331C344.911 29.6069 344.846 33.9787 344.73 37.5745C344.613 41.1703 344.355 44.1064 343.967 46.3829C343.579 48.6593 343.048 50.302 342.363 51.3238C341.677 52.3327 340.759 52.8501 339.595 52.8501C338.314 52.8501 337.396 52.3974 336.827 51.5049C336.258 50.5995 335.973 49.5777 335.973 48.4265C335.973 47.1977 336.219 46.2923 336.71 45.6973C337.202 45.1024 337.745 44.8049 338.34 44.8049C339.142 44.8049 339.698 45.1153 339.996 45.7232C340.293 46.3311 340.435 47.0296 340.435 47.7927C340.435 48.5559 340.448 49.1638 340.487 49.6036C340.513 50.0433 340.655 50.2632 340.888 50.2632C341.211 50.2632 341.548 49.901 341.871 49.1767C342.195 48.4524 342.492 47.0943 342.738 45.1024C342.996 43.1104 343.19 40.3813 343.346 36.9148C343.501 33.4484 343.566 28.9989 343.566 23.5664V16.6724C343.566 15.5212 343.397 14.6675 343.048 14.0855C342.712 13.5164 341.91 13.2189 340.655 13.2189H340.216V11.7831H357.625Z" fill="var(--fill-0, #222323)"/>
<path id="Vector_16" d="M369.279 30.435C370.741 30.435 372.138 30.6548 373.47 31.0946C374.815 31.5344 375.992 32.194 377.027 33.0736C378.062 33.9531 378.877 35.0526 379.51 36.3719C380.144 37.6912 380.455 39.2563 380.455 41.0542C380.455 42.8521 380.144 44.5465 379.51 45.9046C378.89 47.2627 378.062 48.388 377.027 49.2934C375.992 50.1988 374.815 50.8585 373.47 51.2983C372.125 51.738 370.728 51.9579 369.279 51.9579H360.122V50.5222H360.341C361.48 50.5222 362.165 50.2635 362.424 49.7461C362.683 49.2288 362.799 48.2457 362.799 46.7841V16.9443C362.799 15.4956 362.67 14.4997 362.424 13.9823C362.165 13.4649 361.48 13.2062 360.341 13.2062H360.122V11.7705H369.499V13.2062H369.279C368.141 13.2062 367.455 13.4649 367.197 13.9823C366.938 14.4997 366.822 15.4827 366.822 16.9443V30.435H369.279ZM369.279 50.2376C371.297 50.2376 372.927 49.5004 374.143 48.0258C375.358 46.5513 375.979 44.2231 375.979 41.0542C375.979 38.1827 375.371 35.9838 374.168 34.4576C372.966 32.9313 371.336 32.1552 369.279 32.1552H366.822V46.7971C366.822 48.1035 366.964 48.9959 367.248 49.5004C367.533 49.9919 368.063 50.2506 368.827 50.2506H369.279V50.2376Z" fill="var(--fill-0, #222323)"/>
<path id="Vector_17" d="M401.253 46.7971C401.253 48.2457 401.382 49.2417 401.628 49.7591C401.887 50.2764 402.572 50.5351 403.711 50.5351H403.931V51.9709H394.553V50.5351H394.773C395.898 50.5351 396.597 50.2764 396.842 49.7591C397.101 49.2417 397.218 48.2587 397.218 46.7971V32.1552H389.625V46.7971C389.625 48.2457 389.754 49.2417 390 49.7591C390.259 50.2764 390.944 50.5351 392.083 50.5351H392.302V51.9709H382.925V50.5351H383.145C384.283 50.5351 384.969 50.2764 385.227 49.7591C385.486 49.2417 385.602 48.2587 385.602 46.7971V16.9443C385.602 15.4956 385.473 14.4997 385.227 13.9823C384.969 13.4649 384.283 13.2062 383.145 13.2062H382.925V11.7705H392.302V13.2062H392.083C390.944 13.2062 390.259 13.4649 390 13.9823C389.741 14.4997 389.625 15.4827 389.625 16.9443V30.435H397.218V16.9443C397.218 15.4956 397.088 14.4997 396.842 13.9823C396.584 13.4649 395.898 13.2062 394.773 13.2062H394.553V11.7705H403.931V13.2062H403.711C402.572 13.2062 401.887 13.4649 401.628 13.9823C401.37 14.4997 401.253 15.4827 401.253 16.9443V46.7971Z" fill="var(--fill-0, #222323)"/>
<path id="Vector_18" d="M412.894 30.435C413.968 30.435 414.977 30.6548 415.908 31.0946C416.852 31.5344 417.667 32.194 418.392 33.0736C419.103 33.9531 419.672 35.0526 420.086 36.3719C420.5 37.6912 420.707 39.2563 420.707 41.0542C420.707 44.8052 419.957 47.5602 418.469 49.3193C416.982 51.0784 415.119 51.9579 412.881 51.9579H406.414V50.5222H406.634C407.527 50.5222 408.044 50.2635 408.199 49.7461C408.354 49.2288 408.419 48.2457 408.419 46.7841V16.9443C408.419 15.4956 408.341 14.4997 408.199 13.9823C408.044 13.4649 407.527 13.2062 406.634 13.2062H406.414V11.7705H414.447V13.2062H414.227C413.334 13.2062 412.817 13.4649 412.662 13.9823C412.506 14.4997 412.442 15.4827 412.442 16.9443V30.435H412.881H412.894ZM412.455 32.1552V46.7971C412.455 48.1035 412.493 48.9959 412.571 49.5004C412.649 49.9919 412.907 50.2506 413.347 50.2506C413.968 50.2506 414.485 50.0178 414.886 49.5392C415.287 49.0606 415.611 48.4139 415.843 47.5861C416.076 46.7583 416.244 45.8011 416.335 44.6888C416.425 43.5764 416.464 42.3735 416.464 41.0671C416.464 38.3121 416.18 36.1391 415.611 34.5481C415.041 32.9572 414.136 32.1682 412.881 32.1682H412.442L412.455 32.1552ZM426.747 46.7971C426.747 48.2457 426.825 49.2417 426.967 49.7591C427.109 50.2764 427.64 50.5351 428.532 50.5351H428.752V51.9709H420.72V50.5351H420.94C421.832 50.5351 422.349 50.2764 422.505 49.7591C422.66 49.2417 422.725 48.2587 422.725 46.7971V16.9443C422.725 15.4956 422.647 14.4997 422.505 13.9823C422.349 13.4649 421.832 13.2062 420.94 13.2062H420.72V11.7705H428.752V13.2062H428.532C427.64 13.2062 427.122 13.4649 426.967 13.9823C426.812 14.4997 426.747 15.4827 426.747 16.9443V46.7971Z" fill="var(--fill-0, #222323)"/>
<path id="Vector_19" d="M437.949 46.7969C437.949 48.2456 438.078 49.2416 438.324 49.7589C438.583 50.2763 439.268 50.535 440.394 50.535H440.613V51.9707H431.236V50.535H431.456C432.581 50.535 433.28 50.2763 433.538 49.7589C433.784 49.2416 433.913 48.2585 433.913 46.7969V16.9442C433.913 15.4955 433.784 14.4995 433.538 13.9822C433.28 13.4648 432.594 13.2061 431.456 13.2061H431.236V11.7704H440.613V13.2061H440.394C439.255 13.2061 438.57 13.4648 438.324 13.9822C438.065 14.4995 437.949 15.4826 437.949 16.9442V42.2569L445.981 16.9442C445.981 15.4955 445.852 14.4995 445.606 13.9822C445.348 13.4648 444.662 13.2061 443.537 13.2061H443.317V11.7704H452.694V13.2061H452.474C451.336 13.2061 450.651 13.4648 450.392 13.9822C450.133 14.4995 450.017 15.4826 450.017 16.9442V46.7969C450.017 48.2456 450.146 49.2416 450.392 49.7589C450.651 50.2763 451.336 50.535 452.474 50.535H452.694V51.9707H443.317V50.535H443.537C444.662 50.535 445.36 50.2763 445.606 49.7589C445.865 49.2416 445.981 48.2585 445.981 46.7969V21.5359L437.949 46.7969ZM441.972 8.91186C440.277 8.91186 438.841 8.43328 437.69 7.47613C436.526 6.51898 435.944 5.17379 435.944 3.45351C435.944 2.34114 436.19 1.48746 436.681 0.892479C437.173 0.297493 437.742 0 438.402 0C438.997 0 439.475 0.245755 439.85 0.711396C440.225 1.18997 440.407 1.75909 440.407 2.40581C440.407 2.97493 440.316 3.4147 440.135 3.69926C439.954 3.98382 439.76 4.21664 439.527 4.38479C439.307 4.55294 439.1 4.69522 438.906 4.81163C438.712 4.92804 438.622 5.13499 438.622 5.44542C438.622 6.01453 438.932 6.48017 439.54 6.8294C440.148 7.17864 440.963 7.34678 441.972 7.34678C442.981 7.34678 443.795 7.17864 444.403 6.8294C445.011 6.48017 445.322 6.02747 445.322 5.44542C445.322 5.13499 445.231 4.92804 445.05 4.81163C444.869 4.69522 444.675 4.55294 444.442 4.38479C444.222 4.21664 444.015 3.98382 443.821 3.69926C443.627 3.4147 443.537 2.98786 443.537 2.40581C443.537 1.75909 443.718 1.18997 444.093 0.711396C444.468 0.232821 444.947 0 445.542 0C446.201 0 446.77 0.297493 447.262 0.892479C447.753 1.48746 447.999 2.34114 447.999 3.45351C447.999 5.17379 447.417 6.51898 446.253 7.47613C445.089 8.43328 443.666 8.91186 441.972 8.91186Z" fill="var(--fill-0, #222323)"/>
<path id="Vector_20" d="M471.966 31.8705C471.966 38.4541 472.522 43.2011 473.634 46.1372C474.746 49.0604 476.208 50.5349 477.993 50.5349C479.183 50.5349 480.153 50.0434 480.916 49.0733C481.679 48.1033 482.287 47.0038 482.766 45.7751C483.296 44.3911 483.723 42.826 484.02 41.0669L485.133 41.3515C484.809 43.4986 484.305 45.4129 483.62 47.0944C483.322 47.8187 482.973 48.5301 482.572 49.2156C482.171 49.9012 481.705 50.522 481.162 51.0523C480.632 51.5956 480.024 52.0224 479.351 52.3458C478.679 52.6691 477.928 52.8373 477.101 52.8373C475.755 52.8373 474.501 52.3716 473.311 51.4274C472.121 50.4961 471.073 49.1251 470.181 47.3272C469.288 45.5293 468.577 43.3304 468.059 40.7306C467.542 38.1308 467.283 35.1817 467.283 31.8964C467.283 28.611 467.542 25.4162 468.059 22.7905C468.577 20.1648 469.288 17.9918 470.181 16.2456C471.073 14.4995 472.121 13.1802 473.311 12.2877C474.501 11.3952 475.768 10.9425 477.101 10.9425C478.084 10.9425 478.911 11.1495 479.584 11.5504C480.257 11.9514 480.735 12.3006 481.033 12.6111L483.49 11.2271L485.146 23.282L484.033 23.5666C482.934 19.5439 481.925 16.7242 480.994 15.0945C480.075 13.4647 479.002 12.6499 477.773 12.6499C475.988 12.6499 474.578 14.2279 473.531 17.3839C472.483 20.5399 471.966 25.3774 471.966 31.8834V31.8705Z" fill="var(--fill-0, #222323)"/>
<path id="Vector_21" d="M507.199 11.7831L509.295 21.5357L508.402 21.8203C507.057 18.9488 505.945 16.8405 505.026 15.5083C504.121 14.1631 503.164 13.5034 502.142 13.5034H500.357V46.7968C500.357 48.2454 500.525 49.2414 500.875 49.7588C501.211 50.2761 502.013 50.5348 503.267 50.5348H503.72V51.9706H492.997V50.5348H493.45C494.705 50.5348 495.494 50.2761 495.843 49.7588C496.179 49.2414 496.36 48.2584 496.36 46.7968V13.5034H494.575C493.567 13.5034 492.609 14.176 491.691 15.5083C490.786 16.8535 489.66 18.9488 488.315 21.8203L487.423 21.5357L489.518 11.7831H507.199Z" fill="var(--fill-0, #222323)"/>
<path id="Vector_22" d="M518.271 46.7971C518.271 48.2457 518.401 49.2417 518.646 49.7591C518.905 50.2764 519.591 50.5351 520.729 50.5351H520.949V51.9709H511.571V50.5351H511.791C512.929 50.5351 513.615 50.2764 513.874 49.7591C514.132 49.2417 514.249 48.2587 514.249 46.7971V16.9443C514.249 15.4956 514.119 14.4997 513.874 13.9823C513.615 13.4649 512.929 13.2062 511.791 13.2062H511.571V11.7705H520.949V13.2062H520.729C519.591 13.2062 518.905 13.4649 518.646 13.9823C518.388 14.4997 518.271 15.4827 518.271 16.9443V42.2571L526.304 16.9443C526.304 15.4956 526.174 14.4997 525.928 13.9823C525.67 13.4649 524.984 13.2062 523.859 13.2062H523.639V11.7705H533.017V13.2062H532.797C531.658 13.2062 530.973 13.4649 530.727 13.9823C530.468 14.4997 530.352 15.4827 530.352 16.9443V46.7971C530.352 48.2457 530.481 49.2417 530.727 49.7591C530.986 50.2764 531.671 50.5351 532.797 50.5351H533.017V51.9709H523.639V50.5351H523.859C524.984 50.5351 525.683 50.2764 525.928 49.7591C526.187 49.2417 526.304 48.2587 526.304 46.7971V21.536L518.271 46.7971Z" fill="var(--fill-0, #222323)"/>
<path id="Vector_23" d="M556.26 11.7831V13.2189H556.04C554.902 13.2189 554.216 13.4776 553.958 13.9949C553.699 14.5123 553.582 15.4953 553.582 16.9569V46.8097C553.582 48.2584 553.712 49.2543 553.958 49.7717C554.216 50.2891 554.902 50.5478 556.04 50.5478H556.26V51.9835H546.882V50.5478H547.102C548.228 50.5478 548.926 50.2891 549.172 49.7717C549.43 49.2543 549.547 48.2713 549.547 46.8097V16.944C549.547 16.2973 549.534 15.754 549.495 15.3143C549.469 14.8745 549.379 14.5253 549.224 14.2536C549.068 13.982 548.836 13.788 548.512 13.6845C548.189 13.5681 547.71 13.5164 547.089 13.5164H546.197C545.059 13.5164 544.334 13.7233 544.011 14.1243C543.688 14.5253 543.519 15.3789 543.519 16.6853V24.4331C543.519 29.6069 543.455 33.9787 543.338 37.5745C543.222 41.1703 542.963 44.1064 542.575 46.3829C542.187 48.6593 541.657 50.302 540.971 51.3238C540.286 52.3327 539.367 52.8501 538.203 52.8501C536.923 52.8501 536.004 52.3974 535.435 51.5049C534.866 50.5995 534.582 49.5777 534.582 48.4265C534.582 47.1977 534.827 46.2923 535.319 45.6973C535.81 45.1024 536.354 44.8049 536.949 44.8049C537.751 44.8049 538.307 45.1153 538.604 45.7232C538.902 46.3311 539.044 47.0296 539.044 47.7927C539.044 48.5559 539.057 49.1638 539.096 49.6036C539.122 50.0433 539.264 50.2632 539.497 50.2632C539.82 50.2632 540.156 49.901 540.48 49.1767C540.803 48.4524 541.101 47.0943 541.346 45.1024C541.592 43.1104 541.799 40.3813 541.954 36.9148C542.097 33.4484 542.174 28.9989 542.174 23.5664V16.6724C542.174 15.5212 542.006 14.6675 541.657 14.0855C541.321 13.5164 540.519 13.2189 539.264 13.2189H538.811V11.7831H556.221H556.26Z" fill="var(--fill-0, #222323)"/>
<path id="Vector_24" d="M567.914 30.435C569.376 30.435 570.773 30.6548 572.105 31.0946C573.45 31.5344 574.627 32.194 575.649 33.0736C576.671 33.9531 577.499 35.0526 578.133 36.3719C578.766 37.6912 579.064 39.2563 579.064 41.0542C579.064 42.8521 578.754 44.5465 578.133 45.9046C577.512 47.2627 576.684 48.388 575.649 49.2934C574.614 50.1988 573.437 50.8585 572.105 51.2983C570.76 51.738 569.363 51.9579 567.914 51.9579H558.757V50.5222H558.977C560.102 50.5222 560.8 50.2635 561.059 49.7461C561.318 49.2288 561.434 48.2457 561.434 46.7841V16.9443C561.434 15.4956 561.305 14.4997 561.059 13.9823C560.8 13.4649 560.115 13.2062 558.977 13.2062H558.757V11.7705H568.134V13.2062H567.914C566.776 13.2062 566.091 13.4649 565.832 13.9823C565.573 14.4997 565.457 15.4827 565.457 16.9443V30.435H567.914ZM567.914 50.2376C569.932 50.2376 571.562 49.5004 572.778 48.0258C573.994 46.5513 574.614 44.2231 574.614 41.0542C574.614 38.1827 574.007 35.9838 572.804 34.4576C571.601 32.9313 569.971 32.1552 567.914 32.1552H565.457V46.7971C565.457 48.1035 565.599 48.9959 565.884 49.5004C566.168 49.9919 566.699 50.2506 567.475 50.2506H567.927L567.914 50.2376Z" fill="var(--fill-0, #222323)"/>
</g>
</svg>
